<?xml version="1.0" encoding="utf-8"?>
<!-- Generator: Adobe Illustrator 25.4.1, SVG Export Plug-In . SVG Version: 6.00 Build 0)  -->
<svg version="1.1" id="Layer_1" xmlns="http://www.w3.org/2000/svg" xmlns:xlink="http://www.w3.org/1999/xlink" x="0px" y="0px"
	 viewBox="0 0 23 20.89" style="enable-background:new 0 0 23 20.89;" xml:space="preserve">
<style type="text/css">
	.st0{fill:#F1E2EF;}
</style>
<g>
	<path class="st0" d="M12.2,4.63c0,1.26,0,2.52,0,3.77c0,0.06,0.02,0.09,0.07,0.11c0.8,0.32,1.32,1.08,1.32,1.94
		c0,0.85-0.52,1.61-1.32,1.93c-0.06,0.02-0.07,0.05-0.07,0.11c0,2.5,0,5.01,0,7.51c0,0.13-0.03,0.25-0.13,0.34
		c-0.16,0.14-0.38,0.15-0.55,0.01c-0.61-0.5-1.22-1-1.83-1.5c-1.5-1.23-3-2.45-4.5-3.68c-0.2-0.17-0.41-0.34-0.62-0.5
		c-0.03-0.02-0.07-0.04-0.1-0.04c-1.1,0-2.21,0-3.31,0c-0.47,0-0.81-0.34-0.81-0.81c0-2.25,0-4.49,0-6.74
		c0-0.48,0.34-0.82,0.82-0.82c1.1,0,2.2,0,3.3,0c0.05,0,0.09-0.01,0.12-0.04c2.31-1.89,4.62-3.78,6.93-5.67
		c0.14-0.11,0.29-0.14,0.45-0.06c0.16,0.07,0.23,0.21,0.23,0.38C12.2,2.12,12.2,3.38,12.2,4.63z"/>
	<path class="st0" d="M22.65,10.46c-0.01,1.73-0.39,3.37-1.15,4.92c-0.53,1.08-1.23,2.04-2.07,2.9c-0.76,0.77-1.62,1.42-2.57,1.95
		c-0.43,0.24-0.93-0.01-1.03-0.44c-0.07-0.3,0.07-0.62,0.35-0.78c0.77-0.43,1.48-0.95,2.12-1.57c0.81-0.79,1.46-1.68,1.96-2.7
		c0.35-0.72,0.62-1.47,0.78-2.26c0.12-0.55,0.19-1.11,0.21-1.67c0.04-1.11-0.1-2.19-0.43-3.24c-0.45-1.47-1.21-2.75-2.27-3.86
		c-0.58-0.61-1.25-1.13-1.96-1.59c-0.43-0.27-0.64-0.69-0.68-1.2c-0.01-0.09,0.02-0.18,0.05-0.27c0.06-0.16,0.21-0.24,0.38-0.22
		c0.08,0.01,0.16,0.04,0.23,0.07c0.94,0.48,1.8,1.08,2.57,1.81c0.93,0.88,1.69,1.88,2.28,3.02c0.5,0.97,0.85,2,1.05,3.08
		C22.59,9.1,22.65,9.78,22.65,10.46z"/>
	<path class="st0" d="M19.87,10.45c-0.01,1.38-0.32,2.68-0.97,3.9c-0.62,1.17-1.46,2.14-2.54,2.9c-0.3,0.22-0.63,0.41-0.95,0.59
		c-0.46,0.26-1.03-0.05-1.05-0.57c-0.01-0.3,0.12-0.52,0.38-0.66c0.62-0.33,1.19-0.74,1.69-1.24c0.82-0.82,1.4-1.78,1.74-2.89
		c0.23-0.76,0.33-1.55,0.3-2.35c-0.05-0.97-0.28-1.9-0.72-2.77c-0.52-1.04-1.25-1.9-2.2-2.57c-0.25-0.18-0.52-0.34-0.8-0.49
		c-0.35-0.2-0.5-0.61-0.31-0.96c0.18-0.34,0.61-0.48,0.96-0.29c0.69,0.37,1.32,0.82,1.88,1.36c0.57,0.55,1.06,1.17,1.46,1.85
		c0.48,0.82,0.8,1.7,0.98,2.63C19.82,9.4,19.86,9.92,19.87,10.45z"/>
	<path class="st0" d="M17.08,10.49c-0.01,1.05-0.3,2.06-0.89,2.98c-0.57,0.88-1.33,1.55-2.28,2.01c-0.37,0.18-0.76,0.03-0.94-0.34
		c-0.16-0.34-0.02-0.74,0.34-0.91c0.89-0.44,1.56-1.1,1.98-2c0.29-0.61,0.42-1.27,0.39-1.95c-0.04-0.84-0.3-1.6-0.8-2.29
		c-0.39-0.54-0.89-0.96-1.49-1.27c-0.11-0.06-0.23-0.12-0.32-0.2c-0.21-0.2-0.25-0.47-0.13-0.73c0.13-0.29,0.38-0.46,0.68-0.44
		c0.09,0,0.18,0.03,0.26,0.07c0.56,0.27,1.07,0.62,1.51,1.06c0.62,0.61,1.08,1.33,1.37,2.15C16.98,9.21,17.08,9.82,17.08,10.49z"/>
</g>
</svg>
