<?xml version="1.0" encoding="utf-8"?>
<!-- Generator: Adobe Illustrator 25.4.1, SVG Export Plug-In . SVG Version: 6.00 Build 0)  -->
<svg version="1.1" id="Layer_1" xmlns="http://www.w3.org/2000/svg" xmlns:xlink="http://www.w3.org/1999/xlink" x="0px" y="0px"
	 viewBox="0 0 89.56 10.62" style="enable-background:new 0 0 89.56 10.62;" xml:space="preserve">
<style type="text/css">
	.st0{fill:#323131;}
</style>
<g>
	<g>
		<path class="st0" d="M5.14,10.45L3.32,7.13L0,5.31l3.32-1.82l1.82-3.32l1.82,3.32l3.32,1.82L6.96,7.13L5.14,10.45z M1.61,5.31
			l2.28,1.25l1.25,2.28l1.25-2.28l2.28-1.25L6.39,4.06L5.14,1.78L3.89,4.06L1.61,5.31z"/>
	</g>
	<g>
		<path class="st0" d="M16.47,10.45l-1.82-3.32l-3.32-1.82l3.32-1.82l1.82-3.32l1.82,3.32l3.32,1.82l-3.32,1.82L16.47,10.45z
			 M12.94,5.31l2.28,1.25l1.25,2.28l1.25-2.28L20,5.31l-2.28-1.25l-1.25-2.28l-1.25,2.28L12.94,5.31z"/>
	</g>
	<g>
		<path class="st0" d="M27.79,10.45l-1.82-3.32l-3.32-1.82l3.32-1.82l1.82-3.32l1.82,3.32l3.32,1.82l-3.32,1.82L27.79,10.45z
			 M24.26,5.31l2.28,1.25l1.25,2.28l1.25-2.28l2.28-1.25l-2.28-1.25l-1.25-2.28l-1.25,2.28L24.26,5.31z"/>
	</g>
	<g>
		<path class="st0" d="M39.12,10.45L37.3,7.13l-3.32-1.82l3.32-1.82l1.82-3.32l1.82,3.32l3.32,1.82l-3.32,1.82L39.12,10.45z
			 M35.59,5.31l2.28,1.25l1.25,2.28l1.25-2.28l2.28-1.25l-2.28-1.25l-1.25-2.28l-1.25,2.28L35.59,5.31z"/>
	</g>
	<g>
		<path class="st0" d="M50.44,10.45l-1.82-3.32L45.3,5.31l3.32-1.82l1.82-3.32l1.82,3.32l3.32,1.82l-3.32,1.82L50.44,10.45z
			 M46.91,5.31l2.28,1.25l1.25,2.28l1.25-2.28l2.28-1.25l-2.28-1.25l-1.25-2.28l-1.25,2.28L46.91,5.31z"/>
	</g>
	<g>
		<path class="st0" d="M61.77,10.45l-1.82-3.32l-3.32-1.82l3.32-1.82l1.82-3.32l1.82,3.32l3.32,1.82l-3.32,1.82L61.77,10.45z
			 M58.24,5.31l2.28,1.25l1.25,2.28l1.25-2.28l2.28-1.25l-2.28-1.25l-1.25-2.28l-1.25,2.28L58.24,5.31z"/>
	</g>
	<g>
		<path class="st0" d="M73.09,10.45l-1.82-3.32l-3.32-1.82l3.32-1.82l1.82-3.32l1.82,3.32l3.32,1.82l-3.32,1.82L73.09,10.45z
			 M69.56,5.31l2.28,1.25l1.25,2.28l1.25-2.28l2.28-1.25l-2.28-1.25l-1.25-2.28l-1.25,2.28L69.56,5.31z"/>
	</g>
	<g>
		<path class="st0" d="M84.41,10.45L82.6,7.13l-3.32-1.82l3.32-1.82l1.82-3.32l1.82,3.32l3.32,1.82l-3.32,1.82L84.41,10.45z
			 M80.89,5.31l2.28,1.25l1.25,2.28l1.25-2.28l2.28-1.25l-2.28-1.25l-1.25-2.28l-1.25,2.28L80.89,5.31z"/>
	</g>
</g>
</svg>
