<?xml version="1.0" encoding="utf-8"?>
<!-- Generator: Adobe Illustrator 25.4.1, SVG Export Plug-In . SVG Version: 6.00 Build 0)  -->
<svg version="1.1" id="Layer_1" xmlns="http://www.w3.org/2000/svg" xmlns:xlink="http://www.w3.org/1999/xlink" x="0px" y="0px"
	 viewBox="0 0 31.94 32.57" style="enable-background:new 0 0 31.94 32.57;" xml:space="preserve">
<style type="text/css">
	.st0{fill:#EAE9E5;}
	.st1{fill:#ED264E;}
</style>
<g>
	<path class="st0" d="M14.5,24.12c-0.98-3.62-3.86-6.33-7.53-7.08l-4.02-0.82l4.78-1.27c3.44-0.91,6.13-3.62,7.02-7.07l1.23-4.81
		l1.26,4.86c0.89,3.43,3.57,6.12,6.99,7.03l5.03,1.34l-4.85,1.31c-3.29,0.89-5.92,3.47-6.87,6.74l-1.55,5.31L14.5,24.12z"/>
	<path class="st1" d="M15.98,5.07l0.78,2.98c0.94,3.6,3.75,6.43,7.35,7.39l3.23,0.86l-3.05,0.83c-3.45,0.94-6.22,3.65-7.22,7.08
		l-1.05,3.59l-1.03-3.81c-1.02-3.8-4.06-6.65-7.92-7.44l-1.93-0.39l2.72-0.72c3.62-0.96,6.45-3.81,7.37-7.43L15.98,5.07 M15.97,1.06
		l-1.71,6.69c-0.84,3.28-3.39,5.85-6.66,6.72l-6.85,1.81l6.11,1.25c3.46,0.71,6.23,3.31,7.15,6.72l1.95,7.25l2.05-7.02
		c0.91-3.12,3.38-5.55,6.52-6.4l6.65-1.8l-6.83-1.81c-3.25-0.86-5.79-3.41-6.64-6.67L15.97,1.06L15.97,1.06z"/>
</g>
</svg>
