<?xml version="1.0" encoding="utf-8"?>
<!-- Generator: Adobe Illustrator 25.4.1, SVG Export Plug-In . SVG Version: 6.00 Build 0)  -->
<svg version="1.1" id="Layer_1" xmlns="http://www.w3.org/2000/svg" xmlns:xlink="http://www.w3.org/1999/xlink" x="0px" y="0px"
	 viewBox="0 0 23 20.89" style="enable-background:new 0 0 23 20.89;" xml:space="preserve">
<style type="text/css">
	.st0{fill:#F1E2EF;}
</style>
<g>
	<path class="st0" d="M14.55,2.78c-0.43,0.36-0.86,0.72-1.29,1.08C12.39,4.57,11.52,5.28,10.65,6c-0.01,0.01-0.03,0.02-0.07,0.03
		c-0.05-0.46-0.09-0.91-0.14-1.36c-2.5,0.44-5.07,2.93-4.97,6.32c0.11,3.61,3.11,6.34,6.75,6.14c3.51-0.2,6.34-3.33,5.91-7.07
		c0.82-0.1,1.64-0.21,2.5-0.31c0.02,0.23,0.05,0.51,0.06,0.79c0.05,1.77-0.37,3.41-1.3,4.92c-2.26,3.68-6.73,5.23-10.75,3.65
		c-2.98-1.17-4.82-3.38-5.5-6.51c-0.4-1.85-0.19-3.65,0.58-5.38c0.21-0.48,0.51-0.92,0.76-1.38c0.05-0.1,0.11-0.19,0.17-0.29
		C4.75,5.4,4.85,5.27,4.96,5.13c0.07-0.06,0.14-0.12,0.2-0.19c0.88-1.01,1.93-1.79,3.17-2.3c0.56-0.23,1.14-0.4,1.77-0.61
		c-0.06-0.43-0.12-0.9-0.18-1.38c0.03,0.01,0.07,0.02,0.11,0.04c1.09,0.5,2.17,1.01,3.26,1.51c0.4,0.18,0.8,0.35,1.2,0.53
		C14.51,2.75,14.53,2.77,14.55,2.78z"/>
</g>
</svg>
