<?xml version="1.0" encoding="utf-8"?>
<!-- Generator: Adobe Illustrator 25.4.1, SVG Export Plug-In . SVG Version: 6.00 Build 0)  -->
<svg version="1.1" id="Layer_1" xmlns="http://www.w3.org/2000/svg" xmlns:xlink="http://www.w3.org/1999/xlink" x="0px" y="0px"
	 viewBox="0 0 1643.91 1567.78" style="enable-background:new 0 0 1643.91 1567.78;" xml:space="preserve">
<style type="text/css">
	.st0{fill-rule:evenodd;clip-rule:evenodd;fill:#FFFFFF;}
	.st1{fill-rule:evenodd;clip-rule:evenodd;fill:#5B1347;}
	.st2{fill-rule:evenodd;clip-rule:evenodd;fill:#934D9D;}
	.st3{fill:#934D9D;}
	.st4{fill-rule:evenodd;clip-rule:evenodd;fill:#3E364C;}
	.st5{fill-rule:evenodd;clip-rule:evenodd;fill:#EAA421;}
	.st6{fill:#312A3C;}
	.st7{fill-rule:evenodd;clip-rule:evenodd;fill:#FACB24;}
	.st8{fill-rule:evenodd;clip-rule:evenodd;fill:#FCE180;}
	.st9{clip-path:url(#SVGID_00000122685541452309753980000015328575351741833347_);}
	.st10{fill-rule:evenodd;clip-rule:evenodd;fill:#25B277;}
	.st11{clip-path:url(#SVGID_00000140009873442039753620000004135991946111679674_);}
	.st12{fill-rule:evenodd;clip-rule:evenodd;fill:#118753;}
	.st13{clip-path:url(#SVGID_00000124859529444762764000000006213944042528127652_);}
	.st14{fill-rule:evenodd;clip-rule:evenodd;fill:#312A3C;}
	.st15{fill-rule:evenodd;clip-rule:evenodd;fill:#251D2C;}
	.st16{fill-rule:evenodd;clip-rule:evenodd;fill:#FDC13B;}
	.st17{fill:#E11D4A;}
	.st18{fill-rule:evenodd;clip-rule:evenodd;fill:#251F2D;}
	.st19{fill:#251F2D;}
	.st20{fill:#F38BA8;}
	.st21{fill:#251D2C;}
</style>
<g>
	<g>
		<g transform="matrix(1,0,0,1,-502.672,0)">
			<path class="st0" d="M7636.24,2136.82c9.2-64.94,97.92-88.64,195.05-72.6c106.09,17.49,192.07,33.83,178.86,129.48
				c-10.29,74.52-62.17,54.74-188.5,27.89C7681.15,2191.71,7620.29,2249.47,7636.24,2136.82z"/>
			<path class="st1" d="M7627.3,2135.54c-8.66,48.76-0.09,69.69,17.6,79.76c12.27,7.01,31.05,8.55,56.41,9.41
				c29.21,1.01,68.17,1.67,116.78,13.58c44.27,10.54,79.38,20.02,106.94,24.61c21.92,3.66,39.69,4.08,53.76,1.01
				c28.5-6.24,46.17-25.02,52.48-67.28c6.99-52.93-11.03-85.97-44.35-108.1c-16.66-11.06-37.57-19.27-61.63-25.47
				c-27.01-6.95-58.12-11.53-91.14-16.17c-54.49-7.27-106.09-3.02-143.81,12.94c-36.2,15.31-60.26,40.63-63.92,75.57L7627.3,2135.54
				z M7646.08,2138.21c4.75-26.54,25.26-43.77,53.78-53.63c34.47-11.91,80.53-12.51,128.58-3.04
				c55.02,10.26,104.31,19.61,135.17,41.23c20.36,14.26,30.15,35.18,25.4,68.02c-1.67,13-4.08,22.22-9.88,27.86
				c-5.99,5.82-14.84,6.95-26.47,6.84c-29.04-0.21-70.5-9.9-127.47-20.61c-51.94-9.39-93-7.81-123.81-6.89
				c-20.29,0.6-35.46,1.6-45.63-3.31c-5.48-2.65-8.77-7.44-10.41-15.4c-2.01-9.82-2.03-23.12-0.13-41.21L7646.08,2138.21z"/>
		</g>
		<g transform="matrix(1,0,0,1,-502.672,0)">
			<path class="st1" d="M7841.83,2164.83c4.58-54.02,47.69-91.42,103.95-74.29c56.28,17.13,74.59,67.4,65.71,106.6
				c-8.88,39.2-27.71,55.11-89.37,45.36C7871.41,2234.48,7837.08,2221.03,7841.83,2164.83z"/>
		</g>
	</g>
	<g transform="matrix(0.991296,-0.131651,0.131651,0.991296,21.3924,11.923)">
		<g transform="matrix(1,0,0,1,-502.672,0)">
			<path class="st0" d="M8030.91,3216.25c9.19-64.94,97.92-88.64,195.05-72.6c106.09,17.49,192.07,33.83,178.86,129.48
				c-10.29,74.52-62.17,54.74-188.5,27.89C8075.82,3271.14,8014.96,3328.9,8030.91,3216.25z"/>
			<path class="st1" d="M8021.97,3214.96c-8.66,48.76-0.09,69.69,17.6,79.76c12.27,7.01,31.05,8.55,56.41,9.41
				c29.21,1.01,68.17,1.67,116.78,13.58c44.27,10.54,79.38,20.02,106.94,24.61c21.92,3.66,39.69,4.08,53.76,1.01
				c28.51-6.24,46.17-25.02,52.48-67.27c6.99-52.93-11.03-85.97-44.35-108.1c-16.66-11.06-37.57-19.27-61.63-25.47
				c-27.01-6.95-58.12-11.53-91.14-16.17c-54.49-7.27-106.09-3.02-143.81,12.94c-36.2,15.31-60.26,40.63-63.92,75.57
				L8021.97,3214.96z M8040.75,3217.64c4.75-26.54,25.26-43.77,53.78-53.63c34.47-11.91,80.53-12.51,128.58-3.04
				c55.02,10.26,104.31,19.61,135.17,41.23c20.36,14.26,30.15,35.18,25.4,68.02c-1.67,13-4.08,22.22-9.88,27.86
				c-5.99,5.82-14.84,6.95-26.47,6.84c-29.04-0.21-70.5-9.9-127.47-20.61c-51.94-9.39-93-7.81-123.81-6.89
				c-20.29,0.6-35.46,1.6-45.63-3.31c-5.48-2.65-8.77-7.44-10.41-15.4c-2.01-9.82-2.03-23.12-0.13-41.21L8040.75,3217.64z"/>
		</g>
		<g transform="matrix(1,0,0,1,-502.672,0)">
			<path class="st1" d="M8236.5,3244.26c4.58-54.02,47.69-91.42,103.95-74.29c56.28,17.13,74.59,67.4,65.71,106.6
				c-8.88,39.2-27.71,55.11-89.37,45.36C8266.07,3313.91,8231.75,3300.46,8236.5,3244.26z"/>
		</g>
	</g>
	<g transform="matrix(1,0,0,1,1.76702,0)">
		<g transform="matrix(1,0,0,1,0,1.18286)">
			<path class="st1" d="M7331.9,1836.19c0,0-5.45,33.89-2.69,73.39c1.13,16.12,3.68,33.12,8.47,49.14
				c4.23,14.2,10.29,27.63,18.52,38.94c8.98,12.32,20.61,22.07,35.03,28.25c23.22,9.47,43.56,13.19,60.62,13.51
				c39.2,0.73,61.14-15.18,61.14-15.18c3.16-2.09,4.04-6.39,1.95-9.56s-6.37-4.04-9.56-1.95c0,0-19.52,11.4-52.67,8.81
				c-15.12-1.18-32.98-5.24-53.16-14.65c-10.86-4.83-19.29-12.64-26.2-21.88c-7.1-9.54-12.6-20.64-16.81-32.48
				c-5.2-14.54-8.64-30-10.86-44.78c-5.6-37.61-3.68-70.44-3.68-70.44c0.3-2.78-1.71-5.3-4.49-5.6
				C7334.72,1831.4,7332.22,1833.41,7331.9,1836.19z"/>
		</g>
		<g transform="matrix(1,0,0,1,-12.3784,3.18367)">
			<path class="st1" d="M7923.1,2057.14c0,0,15.63-69.01,56.56-121.87c17.41-22.47,39.39-42.21,67.6-51.34
				c40.37-14.24,73.2-7.63,98.88,6.48c47.05,25.85,70.93,76.28,70.93,76.28c1.54,3.49,5.6,5.07,9.09,3.53
				c3.49-1.52,5.07-5.58,3.53-9.07c0,0-23.48-56.97-74.12-87.21c-21.85-13.07-48.71-21.17-80.51-18.01
				c-10.97,1.09-22.54,3.66-34.69,7.78c-31.84,11.42-56.88,34.04-75.55,60.6c-40.31,57.27-51.69,130.94-51.69,130.94
				c-0.51,2.74,1.3,5.39,4.04,5.92C7919.94,2061.69,7922.59,2059.87,7923.1,2057.14z"/>
		</g>
	</g>
	<g transform="matrix(0.993938,0.10994,-0.10994,0.993938,9.29816,-16.1994)">
		<g transform="matrix(1,0,0,1,-0.369014,-3.31139)">
			<path class="st2" d="M7745.9,1830.32c8.81-18.95,43.33-51.73,84.13-79.42c16.21-10.99,33.51-20.96,50.83-28.87
				c17.66-8.06,35.26-14.11,52.11-15.29c38.28-3.57,63,2.31,78.93,14.31c26.28,19.8,28.21,53.31,30.22,73.58
				c0.53,8.32,7.72,14.65,16.04,14.13c8.32-0.53,14.63-7.7,14.11-16.02c-0.75-27.48-3.38-71.83-37.12-100.66
				c-20.51-17.54-53.05-29.49-105.02-27.29c-17.73,1.11-36.44,5.62-54.89,13.37c-23.67,9.92-47.17,24.61-68.28,41.31
				c-44.24,35.01-78.01,78.12-85.97,100.68c-2.8,6.86,0.51,14.73,7.38,17.54C7735.23,1840.5,7743.09,1837.21,7745.9,1830.32z"/>
		</g>
		<g transform="matrix(0.993938,-0.10994,0.10994,0.993938,-507.086,72.3875)">
			<path class="st2" d="M8184.57,2608.07c3.61-0.66,12.47-2.22,23.33-3.61c4.75-0.6,9.81-0.98,15.01-1.5
				c3.98-0.41,7.98-0.81,11.87-1.05c3.87-0.23,7.57-0.66,11.12-0.3c7.59,0.79,14.39,2.97,18.05,10.69c0.73,2.4,3.23,3.76,5.62,3.06
				c2.39-0.71,3.76-3.23,3.06-5.62c-1.69-12.94-9.84-20.23-20.34-24.87c-4.04-1.8-8.53-2.78-13.28-3.4
				c-4.19-0.54-8.58-0.64-12.96-0.21c-4.15,0.41-8.3,1.28-12.25,2.42c-4.96,1.41-9.58,3.12-13.77,4.98
				c-8.17,3.61-14.29,7.23-17.28,9.07c-0.85,0.51-1.52,1.3-1.69,1.03c-3.59-5.52,1.73,9.67,1.73,9.67
				c-4.47-8.47-5.65-5.54-4.58-3.02C8179.27,2607.86,8182.09,2609.03,8184.57,2608.07z"/>
		</g>
		<path class="st3" d="M7882.94,1715.82c-11.1,1.23-21.39-6.35-23.38-17.5c-13.1-73.52-13.2-150.93-0.28-230.06
			c1.9-11.65,12.88-19.56,24.55-17.66c11.66,1.9,19.56,12.89,17.66,24.55c-12.13,74.36-12.07,146.92,0.18,215.67
			c2.07,11.63-5.68,22.73-17.3,24.8C7883.89,1715.7,7883.41,1715.77,7882.94,1715.82z"/>
		<g transform="matrix(1,0,0,1,1.50327,0)">
			<path class="st1" d="M7738.08,1421.36c3.02-45.66,71.34-79.04,145.73-77.28c74.37,1.75,153.97,19.63,157.67,80.9
				c3.81,63.43-87.29,78.31-160.23,78.48C7808.31,1503.62,7734.21,1479.65,7738.08,1421.36z"/>
		</g>
	</g>
	<g transform="matrix(1,0,0,1,-0.623532,-4.6886)">
		<g transform="matrix(0.856568,0,0,0.856568,7.55989,17.8943)">
			<path class="st2" d="M8228.76,2789.54c-3.83-46.92,10.01-156.98,131.66-162.14c123.28-5.24,151.36,90.03,152.45,159.36
				c0.71,45.21-22.22,112.4-129.46,122.17C8276.15,2918.7,8232.59,2836.46,8228.76,2789.54z"/>
		</g>
		<g transform="matrix(1,0,0,1,52.5277,3.49417)">
			<path class="st2" d="M8132.09,2509.22c-3.83-46.92,10.01-156.98,131.66-162.14c123.28-5.24,151.36,90.03,152.45,159.36
				c0.71,45.21-22.22,112.4-129.46,122.17C8179.48,2638.38,8135.92,2556.13,8132.09,2509.22z"/>
		</g>
	</g>
</g>
<g transform="matrix(1,0,0,1,-502.672,0)">
	<path class="st0" d="M-3322.15,5221.9c-100.21-43.68-232.92,50.35-327.46,177.77c-81.96,110.47-160.87,345.93-38.89,420.42
		c121.97,74.48,281.17-95.43,343.44-201.32C-3275.63,5500.73-3197.58,5276.21-3322.15,5221.9z"/>
	<path class="st1" d="M-3319.31,5215.39c-48.13-21.8-104.01-13.27-160.07,15.64c-63.59,32.81-127.42,92.06-180.13,161.28
		c-48.22,63.85-95.87,168.93-105.14,262.12c-7.52,75.72,10.65,143.34,68.18,178.72c56.63,34.21,120.54,22.09,180.22-14.07
		c76.21-46.18,145.38-131.24,181.63-194.2c38.23-66.87,78.79-166.89,85.76-252.04c5.84-71.26-11.71-132.13-70.7-156.9
		L-3319.31,5215.39z M-3324.74,5227.83c52.42,23.7,65.12,79.43,58.23,143.36c-8.87,82.1-50.44,177.74-88.96,241.45
		c-35.53,59.16-102.63,138.68-175.64,181.56c-49.92,29.3-102.69,41.65-149.39,12.83c-48.19-29.21-60.37-86.6-54.82-149.84
		c7.75-88.46,50.96-188.83,95.64-250.14c49-67.8,108.85-126.32,169.11-159.46c50.46-27.76,101.1-37.82,145.59-19.17
		L-3324.74,5227.83z"/>
</g>
<g>
	<path class="st0" d="M-4152.28,5991.67h1241.65c0,0-13.77-594.14-295.14-760.5c-302.46-178.83-718.73-84.56-830.09,170.74
		C-4132.73,5623.95-4152.28,5991.67-4152.28,5991.67z"/>
	<path class="st1" d="M-2904.16,5991.52c0,0-3.16-270.59-91.34-499.47c-43.78-113.63-108.85-216.61-202.99-273.21
		c-84.93-50.61-178.75-80.34-272.56-90.83c-65.14-7.29-130.26-5.3-192.27,4.96c-174.23,28.85-323.84,123.35-384.33,263.79
		c-29.62,69.12-51.87,152.03-68.32,233.8c-36.9,183.3-44.99,360.64-44.99,360.64c-0.26,4.78,3.42,8.89,8.21,9.13
		c4.78,0.26,8.87-3.42,9.13-8.21c0,0,10.68-175.69,49.74-356.97c17.22-79.86,39.9-160.82,69.78-228.12
		c58.3-131.96,201.08-218.15,365.61-244.36c59.42-9.47,121.69-11.06,184.05-4.21c89.77,9.85,179.76,37.19,261.37,85.04
		c90.16,52.4,152.06,150.13,195.54,257.25c91.09,224.34,100.41,491.07,100.41,491.07c0.08,3.57,3.05,6.4,6.62,6.33
		C-2906.9,5998.06-2904.07,5995.09-2904.16,5991.52z"/>
	<g transform="matrix(0.763749,0,0,0.763749,14.8434,47.2502)">
		<path class="st2" d="M-5366.46,7783.22h1052.21c0,0-63.57-452.24-233.35-621.52c-248.82-248.09-578.15-182.52-711.9,102.49
			C-5362.4,7483.49-5366.46,7783.22-5366.46,7783.22z"/>
	</g>
</g>
<g>
	<g transform="matrix(1,0,0,1,-502.672,0)">
		<path class="st0" d="M-3490.1,5399.68c129.08-65.78,344.48,62.79,415.1,125.05c77.56,68.37,186.78,55.8,223.78-29.6
			c15.03-34.71,20.56-84.9,43.85-113.68c28.91-35.73,79.51-53.8,114.12-45.61c68.49,16.18,208.12,84.87,165.44,277.58
			c-48.54,219.23-206.93,268.91-337.14,283.66c-146.05,16.58-468.31-60.08-575.39-156.78
			C-3547.42,5643.59-3635.69,5473.88-3490.1,5399.68z"/>
	</g>
	<g transform="matrix(1,0,0,1,-502.672,0)">
		<path class="st1" d="M-2532.11,5505.65c3.26,16.13,4.67,33.77,3.81,52.99c-0.72,16.5-3.16,34.15-7.54,53
			c-21.73,93.88-63.77,155.57-115.02,196.26c-64.98,51.56-144.6,69.29-215.5,76.7c-71.42,7.65-185.34-8.04-294.91-36.87
			c-110.25-28.99-216.31-71.13-268.8-118.81c-59.08-53.02-112.79-128.8-120.97-197.51c-5.65-47.48,11.92-91.05,67.13-119.58
			c47.59-24.68,107.85-20.56,167.64-3.86c96.62,26.98,192.08,87.43,234.62,124.3c39.44,34.14,86.33,48.66,128.74,44.74
			c46.9-4.37,88.47-31.03,108.67-78.86c8.14-19.32,13.35-50.5,21.79-76c3.66-11.08,7.89-21.02,13.5-28.07
			c2.27-2.77,1.84-6.86-0.94-9.12c-2.77-2.25-6.85-1.84-9.1,0.93c-6.62,7.97-11.91,19.2-16.36,31.82
			c-8.81,24.93-14.46,55.53-22.85,74.38c-18.45,41.48-55.11,64.23-96.18,67.27c-37.88,2.82-79.36-11.12-113.95-42.18
			c-43.47-38.98-141.35-103.46-241.08-132.97c-66.35-19.64-133.46-23.44-186.87,3.31c-68.57,34.46-90.17,88.52-83.69,147.22
			c8.27,75,65.3,158.69,129.38,216.92c55.33,49.69,166.2,94.8,282.09,124.14c113.4,28.73,231.37,42.58,304.99,33.76
			c74.68-9.13,158.28-29.66,225.87-85.33c53.29-43.9,96.85-109.57,117.89-209.04c4.2-19.96,6.37-38.61,6.8-56.02
			c0.49-20.53-1.41-39.33-5.26-56.48c-0.81-3.85-4.6-6.3-8.43-5.47C-2530.47,5498.03-2532.92,5501.81-2532.11,5505.65z"/>
	</g>
</g>
<g>
	<g transform="matrix(1,0,0,1,-502.672,0)">
		<path class="st0" d="M-3705.16,5616.61c77.26-149.23,224.27-199.05,331.26-216.94c177.8-29.69,330.95,4.38,373.48,165.64
			c-62.67-12.33-121.74-26.39-218.77,41.48c-63.05,44.1-270.43,231.28-396.38,231.61
			C-3711.92,5838.66-3764.05,5730.33-3705.16,5616.61z"/>
	</g>
	<g transform="matrix(1,0,0,1,-502.672,0)">
		<path class="st1" d="M-3649.71,5547.37c37.43-41.69,81.56-71.1,126.59-92.07c52.04-24.22,105.33-37.1,151.12-44.13
			c99.64-15.6,191.06-11.08,258.24,25.93c41.14,22.65,72.84,57.81,91.23,108.45c-30.05-5.39-60.46-8.72-95.38-1.7
			c-31.75,6.37-67.27,21.28-109.48,51.25c-38.05,27.2-128.98,107.79-222.57,167.26c-58.49,37.16-117.8,66.38-165.64,67.14
			c-31.69,0.52-55.22-10.69-72.38-25.45c-32.02-27.53-42.5-66.93-42.5-66.93c-0.86-3.48-4.38-5.59-7.85-4.73
			c-3.48,0.87-5.59,4.38-4.73,7.84c0,0,10.28,43.94,44.82,75.42c19.31,17.61,46.12,31.26,82.69,31.66
			c50.67,0.54,114.7-27.72,177.57-65.61c95.35-57.46,188.2-136.69,226.96-163.2c38.34-26.42,70.33-39.58,98.92-45.05
			c40.37-7.75,73.95-0.05,108.71,6.88c5.18,1.01,10.51-0.7,14.11-4.55c3.6-3.85,4.98-9.27,3.63-14.36
			c-19.47-72.49-59.87-120.82-114.35-149.78c-72.25-38.4-169.91-42.27-275.85-23.44c-47.32,8.55-102.28,23.27-155.57,49.95
			c-46.3,23.17-91.34,55.27-129.03,99.89c-2.57,2.96-2.27,7.45,0.69,10.04C-3656.78,5550.65-3652.29,5550.34-3649.71,5547.37z"/>
	</g>
</g>
<g>
	<g>
		<path class="st0" d="M111.15,667.35c0,0,112.56-1.6,171.06-123.44c49.58-103.25-38.11-206.25-38.11-206.25
			s93.72,86.48,202.79,48.87C548.15,351.62,554.1,244.9,554.1,244.9s-1.83,137.78,143.05,136.38
			C842.03,379.9,894.53,266.9,894.53,266.9s-46.43,129.74,168.18,181.16c175.04,41.94,223.28-63.45,223.28-63.45
			s-42.73,97.68,44.82,181.78c74.16,71.24,148.84,30.68,148.84,30.68s-107.3,49.88-92.46,156.82
			c13.51,97.36,75.89,102.25,75.89,102.25s-144.19,15.38-174.02,163.34c-26.63,132.1,40.17,194.17,40.17,194.17
			s-114.88-83.32-250.55-22.6c-135.67,60.73-153.18,197.89-153.18,197.89s-87.8-179.03-228.9-186.09
			c-141.1-7.06-230.96,100.84-230.96,100.84s-0.87-86.24-70.68-116.07c-69.81-29.82-161.95,18.26-161.95,18.26
			s69.35-87.35,12.28-181.41c-57.07-94.06-114.28-83.82-114.28-83.82s127-19.02,126.54-139.94
			C257.12,689.66,111.15,667.35,111.15,667.35z"/>
		<path class="st4" d="M1478.22,597.78c-12.68,6.38-104.86,56.48-91.03,156.11c13.51,97.36,75.89,102.25,75.89,102.25
			s-144.19,15.38-174.02,163.34c-26.63,132.1,40.17,194.17,40.17,194.17s-114.88-83.32-250.55-22.6
			c-135.67,60.73-153.18,197.89-153.18,197.89s-87.8-179.03-228.9-186.09c-141.1-7.06-230.96,100.84-230.96,100.84
			s-0.87-86.24-70.68-116.07c-69.81-29.82-161.95,18.26-161.95,18.26s69.35-87.35,12.28-181.41
			c-57.07-94.06-114.28-83.82-114.28-83.82s127-19.02,126.54-139.94c-0.43-111.07-146.4-133.38-146.4-133.38
			s112.56-1.6,171.06-123.44c49.58-103.25-38.11-206.25-38.11-206.25s93.72,86.48,202.79,48.87
			C548.15,351.62,554.1,244.9,554.1,244.9s-1.83,137.78,143.05,136.38C842.03,379.9,894.53,266.9,894.53,266.9
			s-46.43,129.74,168.18,181.16c175.04,41.94,223.28-63.45,223.28-63.45s-42.73,97.68,44.82,181.78
			C1398.97,631.87,1467.57,602.91,1478.22,597.78c0.92-0.47,1.43-0.71,1.43-0.71S1479.16,597.34,1478.22,597.78z M552.51,312.13
			c-4.49,9.78-10.12,19.91-17.16,29.83c-17.46,24.61-43.58,47.9-82.5,61.85c-42.82,15.47-83.74,13.32-118.64,4.29
			c-10.44-2.7-20.34-6.04-29.56-9.74c4.08,10.12,7.74,20.99,10.57,32.45c9.22,37.28,9.57,80.38-10.48,123.92
			c-20.61,44.74-48.18,75.02-75.56,95.83c-9.98,7.58-19.98,13.9-29.72,19.14c16.21,8.83,32.36,20.07,46,34.26
			c22.88,23.8,39.24,55.29,39.34,96.66c0.13,51.53-19.24,87.56-43.93,112.76c-10.58,10.8-22.24,19.54-33.84,26.56
			c18.84,14.04,40.1,35.97,61.08,70.69c23.26,38.49,28.5,76,25.49,108.55c-1.34,14.5-4.36,27.99-8.18,40.12
			c12.99-3.17,27.18-5.68,41.8-6.72c25.9-1.84,53.02,0.9,77.73,11.67c30.67,13.76,50.5,35.96,62.9,59.2
			c6.26,11.72,10.62,23.63,13.64,34.54c19.32-15.57,46.54-34.14,80.35-48.62c37.71-16.15,83.51-27.48,135.63-23.78
			c46.18,3.24,86.81,23.11,120.92,49.66c48.6,37.82,83.74,88.97,102.44,120.27c7.12-24.02,20.72-58.56,45.98-92.8
			c23.55-31.92,57.09-63.64,105.26-86.43c49.11-23.38,96.07-28.39,136.58-25.25c23.79,1.84,45.36,6.61,63.91,12.39
			c-4.16-11.04-7.86-23.52-10.64-37.45c-6-30.08-7.48-67.24,0.42-111.9c10.4-57.96,36.99-98.28,66.77-126.62
			c20.66-19.66,43.09-33.57,63.4-43.1c-13.76-18.6-26.7-45.83-30.75-86.94c-4.3-45.04,8.62-80.75,27.69-108.2
			c5.87-8.45,12.28-16.09,18.86-22.93c-3.88-0.48-7.85-1.15-11.89-2.02c-24.45-5.26-51.87-17.74-79.26-43.64
			c-32.6-30.79-49.01-63.52-56.71-93.33c-3.51-13.58-5.18-26.6-5.64-38.63c-10.34,6.86-22.53,13.32-36.83,18.65
			c-37.04,13.8-89.06,20.11-160.71,3.54c-84.78-20.31-131.92-52.64-157.74-84.75c-14.88-18.5-23.22-37.12-27.56-54.16
			c-13.19,12.74-29.75,25.83-50.03,37.07c-31.8,17.61-72.8,30.96-124.58,30.7c-55.06-0.22-90.81-18.48-114.38-41.93
			C568.83,343.75,559.15,327.68,552.51,312.13z"/>
	</g>
	<g transform="matrix(1.1474,-0.553275,0.553275,1.1474,-178.672,6.25928)">
		<g transform="matrix(0.709208,0.336438,-0.336438,0.709208,184.265,-221.209)">
			<g transform="matrix(1.38108,-0.0470845,0.0213062,0.624952,-112.406,248.416)">
				<g>
					<path class="st5" d="M761.56,1968.7c0-29.71-10.9-53.8-24.34-53.8c-30.68,0-94.7,0-125.38,0c-13.44,0-24.34,24.08-24.34,53.8
						c0,0.01,0,0.01,0,0.02c0,29.71,10.9,53.8,24.34,53.8c30.68,0,94.7,0,125.38,0c13.44,0,24.34-24.09,24.34-53.8V1968.7z
						 M747.09,1968.7c0-12.05-4.42-21.81-9.87-21.81c-30.68,0-94.7,0-125.38,0c-5.45,0-9.87,9.76-9.87,21.81c0,0.01,0,0.01,0,0.02
						c0,12.04,4.42,21.81,9.87,21.81c30.68,0,94.7,0,125.38,0c5.45,0,9.87-9.77,9.87-21.81V1968.7z"/>
					<path class="st6" d="M610.79,2025.33c-13.65-1.22-24.59-26.14-24.59-56.6c0-31.26,11.5-56.67,25.64-56.67l125.38,0
						c6.85,0,13.28,5.89,18.13,16.59c4.84,10.7,7.51,24.93,7.51,40.06c0,0.04,0,0.08,0,0.12l0,0.02c0,15.02-2.67,29.24-7.51,39.94
						c-4.84,10.7-11.28,16.59-18.13,16.59l-125.38,0C611.48,2025.37,611.13,2025.36,610.79,2025.33z M588.78,1968.7
						c0,0.05,0,0.09,0,0.14c0,27.97,10.33,50.86,23.05,50.82l125.38,0c6.16,0,11.95-5.3,16.3-14.92c4.35-9.62,6.75-22.41,6.75-36.02
						l0-0.02c0-13.61-2.4-26.4-6.75-36.02c-4.35-9.62-10.14-14.91-16.3-14.92l-125.38,0
						C599.12,1917.76,588.78,1940.61,588.78,1968.7L588.78,1968.7z M611.38,1993.37c-5.94-0.53-10.71-11.38-10.71-24.65
						c0-13.62,5.01-24.69,11.16-24.69l125.38,0c2.98,0,5.78,2.56,7.89,7.22c2.11,4.66,3.27,10.85,3.27,17.44c0,0.04,0,0.08,0,0.12
						l0,0.02c0,6.47-1.16,12.67-3.27,17.33c-2.11,4.66-4.91,7.23-7.89,7.23l-125.38,0C611.68,1993.39,611.53,1993.38,611.38,1993.37
						z M603.25,1968.7c0,0.05,0,0.09,0,0.14c0,10.34,3.86,18.87,8.58,18.84l125.38,0c2.29,0,4.45-1.97,6.07-5.55
						c1.62-3.58,2.51-8.34,2.51-13.4l0-0.02c0-5.06-0.89-9.82-2.51-13.41c-1.62-3.58-3.77-5.55-6.07-5.55l-125.38,0
						C607.1,1949.74,603.25,1958.25,603.25,1968.7L603.25,1968.7z"/>
				</g>
			</g>
			<g transform="matrix(0.999419,-0.0340727,0.0340727,0.999419,-2.12957,-4.64473)">
				<g transform="matrix(1,0,0,1,-2.33691,-5.86397)">
					
						<ellipse transform="matrix(0.7071 -0.7071 0.7071 0.7071 -947.1123 1069.1755)" class="st7" cx="817.05" cy="1677.85" rx="150.75" ry="150.75"/>
				</g>
				<g transform="matrix(1.1025,0,0,1,-32.191,0)">
					<path class="st7" d="M847.96,1490.22c0-5.52-4.06-10-9.07-10c-28.08,0-113.37,0-141.45,0c-5.01,0-9.07,4.48-9.07,10
						c0,20.55,0,65.63,0,65.63l159.6,0L847.96,1490.22z"/>
				</g>
				<g transform="matrix(0.878871,0,0,0.878871,35.2914,83.1125)">
					<path class="st8" d="M886.85,1657.1c83.2,0,150.76,67.56,150.76,150.76c0,83.21-67.56,150.76-150.76,150.76
						c-83.21,0-150.76-67.55-150.76-150.76C736.09,1724.66,803.64,1657.1,886.85,1657.1z M886.85,1665.1
						c78.79,0,142.76,63.97,142.76,142.76c0,78.79-63.97,142.76-142.76,142.76c-78.79,0-142.76-63.97-142.76-142.76
						C744.09,1729.07,808.06,1665.1,886.85,1665.1z"/>
					<path class="st4" d="M886.85,1654.37c-84.72,0-153.49,68.78-153.49,153.49c0,84.72,68.78,153.49,153.49,153.49
						c84.71,0,153.49-68.78,153.49-153.49C1040.34,1723.15,971.56,1654.37,886.85,1654.37z M886.85,1657.1
						c83.2,0,150.76,67.56,150.76,150.76c0,83.21-67.56,150.76-150.76,150.76c-83.21,0-150.76-67.55-150.76-150.76
						C736.09,1724.66,803.64,1657.1,886.85,1657.1z M886.85,1665.1c78.79,0,142.76,63.97,142.76,142.76
						c0,78.79-63.97,142.76-142.76,142.76c-78.79,0-142.76-63.97-142.76-142.76C744.09,1729.07,808.06,1665.1,886.85,1665.1z
						 M886.85,1667.83c77.28,0,140.03,62.74,140.03,140.03c0,77.28-62.74,140.03-140.03,140.03c-77.28,0-140.03-62.75-140.03-140.03
						C746.82,1730.58,809.56,1667.83,886.85,1667.83z"/>
				</g>
				<g transform="matrix(1.16894,-0.506483,0.506483,1.16894,-106.101,345.739)">
					<path class="st6" d="M196.14,1352.79c-58.73-28.32-85.22-98.46-59.07-158.81c15.32-35.36,46.71-61.56,84.23-70.43l16.86-38.92
						c1.49-3.43,4.22-6.08,7.7-7.45c3.48-1.38,7.28-1.31,10.71,0.17l108.38,46.96c7.11,3.09,10.35,11.33,7.28,18.41l-16.87,38.92
						c19.18,33.44,21.53,74.26,6.21,109.62c-12.98,29.96-36.88,53.09-67.28,65.11c-30.4,12.02-63.65,11.49-93.62-1.49
						C199.15,1354.2,197.64,1353.51,196.14,1352.79z M362,1131.74c-0.07-0.04-0.15-0.07-0.23-0.1l-108.38-46.96
						c-1.47-0.64-3.1-0.66-4.59-0.07c-1.49,0.59-2.66,1.72-3.3,3.19l-17.67,40.78c-0.51,1.18-1.56,2.04-2.82,2.32
						c-35.9,7.85-66.03,32.62-80.61,66.25c-24.44,56.41,0.32,121.96,55.2,148.43c1.4,0.68,2.81,1.32,4.25,1.95
						c28,12.13,59.08,12.63,87.49,1.39c28.42-11.24,50.75-32.85,62.88-60.85c14.57-33.63,12.04-72.56-6.79-104.12
						c-0.66-1.1-0.75-2.46-0.23-3.64l17.67-40.78c0.64-1.47,0.66-3.1,0.07-4.59C364.41,1133.52,363.37,1132.4,362,1131.74z"/>
				</g>
			</g>
			<g transform="matrix(0.109402,-0.00372979,0.00372979,0.109402,289.631,690.867)">
				<path class="st5" d="M4261.47,8320.39c-24.72,52.57-64.55,150.27-87.21,274.01c-15.66,85.54-23.11,183.51-11.76,287.61
					c19.98,183.26,90.69,370.55,232.59,513.51c117.93,118.82,285.03,207.09,513.3,236.95c6.57,0.83,12.58-3.83,13.41-10.4
					c0.83-6.57-3.83-12.58-10.4-13.41c-222.95-27.18-386.8-111.69-502.87-226.6c-140.35-138.95-210.91-322.13-232.07-501.63
					c-12.1-102.66-5.57-199.42,9.16-284c21.38-122.79,60-219.93,84.04-272.23c1.05-2.26,0.07-4.95-2.19-6
					C4265.21,8317.15,4262.52,8318.13,4261.47,8320.39z"/>
				<g transform="matrix(1,0,0,1,-0.184061,-2.30694)">
					<g transform="matrix(1,0,0,1,-1.14971,-1.48972)">
						<path class="st5" d="M4762.58,9324.89c8.63,6.56,84.03,65.29,100.3,119.5c28.5,95-42.42,148.12-45.08,150.06
							c-3.02-31.83-9.37-87.84-18.88-127.36C4789.46,9427.81,4772.58,9362.89,4762.58,9324.89z"/>
					</g>
					<path class="st8" d="M4761.43,9323.4c10,37.99,26.88,102.92,36.34,142.2c9.51,39.53,15.86,95.54,18.88,127.37l-0.07,0.06
						c0,0-87.46-61.96-89.43-135.13c-1.92-71.48,33.5-135.12,33.5-135.12L4761.43,9323.4z"/>
				</g>
				<g>
					<g transform="matrix(-0.487725,-0.228163,-0.228163,0.487725,439.034,-36.5721)">
						<path class="st8" d="M-13071.36,10782.92c8.63,6.56,84.03,65.29,100.3,119.5c28.5,95-42.42,148.12-45.08,150.06
							c-3.02-31.83-9.37-87.83-18.88-127.36C-13044.47,10885.84-13061.36,10820.91-13071.36,10782.92z"/>
					</g>
					<g transform="matrix(-0.487725,-0.228163,-0.228163,0.487725,438.133,-36.1078)">
						<path class="st5" d="M-13072.51,10781.43c10,37.99,26.88,102.92,36.34,142.2c9.51,39.53,15.86,95.54,18.88,127.37l-0.07,0.06
							c0,0-87.46-61.96-89.43-135.13c-1.92-71.48,33.5-135.12,33.5-135.12L-13072.51,10781.43z"/>
					</g>
				</g>
				<g transform="matrix(0.997417,-0.0718224,0.0718224,0.997417,-11.0119,12.0078)">
					<g transform="matrix(-0.573077,0.514733,0.514733,0.573077,138.598,-242.632)">
						<path class="st5" d="M4556.41,11495.05c8.63,6.56,84.03,65.29,100.3,119.5c28.5,95-42.42,148.12-45.08,150.06
							c-3.02-31.83-9.37-87.83-18.88-127.36C4583.29,11597.97,4566.4,11533.04,4556.41,11495.05z"/>
					</g>
					<g transform="matrix(-0.573077,0.514733,0.514733,0.573077,138.706,-241.186)">
						<path class="st8" d="M4555.26,11493.56c10,37.99,26.88,102.92,36.34,142.2c9.51,39.53,15.86,95.54,18.88,127.37l-0.07,0.06
							c0,0-87.46-61.96-89.43-135.13c-1.93-71.48,33.5-135.12,33.5-135.12L4555.26,11493.56z"/>
					</g>
				</g>
				<g transform="matrix(1,0,0,1,1.50073,2.485)">
					<g transform="matrix(-0.366023,0.750241,0.750241,0.366023,-28.2644,-168.22)">
						<path class="st5" d="M7486.82,8993.56c8.63,6.55,84.03,65.29,100.3,119.5c28.5,95-42.42,148.12-45.08,150.06
							c-3.02-31.83-9.37-87.84-18.88-127.36C7513.71,9096.48,7496.82,9031.55,7486.82,8993.56z"/>
					</g>
					<g transform="matrix(-0.366023,0.750241,0.750241,0.366023,-27.5675,-166.812)">
						<path class="st8" d="M7485.67,8992.07c10,37.99,26.88,102.92,36.34,142.2c9.51,39.53,15.86,95.54,18.88,127.37l-0.07,0.06
							c0,0-87.46-61.96-89.43-135.13c-1.92-71.48,33.5-135.12,33.5-135.12L7485.67,8992.07z"/>
					</g>
				</g>
				<g transform="matrix(0.992499,-0.122253,0.122253,0.992499,-32.0645,27.562)">
					<g transform="matrix(0.619499,0.308076,-0.308076,0.619499,114.79,-40.3968)">
						<path class="st5" d="M10150.06,10319.82c8.63,6.56,84.03,65.29,100.3,119.5c28.5,95-42.42,148.12-45.08,150.06
							c-3.02-31.83-9.37-87.84-18.88-127.36C10176.95,10422.75,10160.06,10357.82,10150.06,10319.82z"/>
					</g>
					<g transform="matrix(0.619499,0.308076,-0.308076,0.619499,115.043,-39.1197)">
						<path class="st8" d="M10148.91,10318.34c10,37.99,26.88,102.92,36.33,142.2c9.51,39.53,15.86,95.54,18.88,127.37l-0.07,0.06
							c0,0-87.46-61.96-89.43-135.13c-1.92-71.48,33.5-135.12,33.5-135.12L10148.91,10318.34z"/>
					</g>
				</g>
				<g transform="matrix(1,0,0,1,-0.123142,0.565683)">
					<g transform="matrix(0.103897,0.615797,-0.615797,0.103897,391.968,-114.009)">
						<path class="st5" d="M14544.37-4012.3c8.63,6.56,84.03,65.29,100.3,119.5c28.5,95-42.42,148.12-45.08,150.06
							c-3.02-31.83-9.37-87.84-18.88-127.36C14571.25-3909.38,14554.36-3974.31,14544.37-4012.3z"/>
					</g>
					<g transform="matrix(0.103897,0.615797,-0.615797,0.103897,391.17,-113.147)">
						<path class="st8" d="M14543.21-4013.79c10,37.99,26.88,102.92,36.34,142.2c9.51,39.53,15.86,95.54,18.88,127.37l-0.07,0.06
							c0,0-87.46-61.96-89.43-135.13c-1.92-71.48,33.5-135.12,33.5-135.12L14543.21-4013.79z"/>
					</g>
				</g>
				<g transform="matrix(1,0,0,1,1.32131,1.67736)">
					<g transform="matrix(0.129188,0.873244,0.989233,-0.146348,-233.259,126.793)">
						<path class="st5" d="M11078.51,2936.65c8.63,6.56,84.03,65.29,100.3,119.5c28.5,95-42.42,148.12-45.08,150.06
							c-3.02-31.83-9.37-87.84-18.88-127.36C11105.4,3039.57,11088.51,2974.64,11078.51,2936.65z"/>
					</g>
					<g transform="matrix(0.129188,0.873244,0.989233,-0.146348,-231.636,127.579)">
						<path class="st8" d="M11077.36,2935.16c10,37.99,26.88,102.92,36.34,142.2c9.51,39.53,15.86,95.54,18.88,127.37l-0.07,0.06
							c0,0-87.46-61.96-89.43-135.13c-1.92-71.48,33.5-135.12,33.5-135.12L11077.36,2935.16z"/>
					</g>
				</g>
				<g transform="matrix(1,0,0,1,-0.538615,1.93164)">
					<g transform="matrix(-0.415972,0.310646,0.351908,0.471223,170.832,-194.541)">
						<path class="st5" d="M3548.39,15536.2c8.63,6.56,84.03,65.29,100.3,119.5c28.5,95-42.42,148.12-45.08,150.06
							c-3.02-31.83-9.37-87.83-18.88-127.36C3575.28,15639.12,3558.39,15574.19,3548.39,15536.2z"/>
					</g>
					<g transform="matrix(-0.415972,0.310646,0.351908,0.471223,170.878,-193.482)">
						<path class="st8" d="M3547.24,15534.71c10,37.99,26.88,102.92,36.34,142.2c9.51,39.53,15.86,95.54,18.88,127.37l-0.07,0.06
							c0,0-87.46-61.96-89.43-135.13c-1.92-71.48,33.5-135.12,33.5-135.12L3547.24,15534.71z"/>
					</g>
				</g>
				<g transform="matrix(1,0,0,1,-1.0057,1.79491)">
					<path class="st8" d="M4577.65,9734.46c30.12-28.57,64.15-82.84,117.64-108.5c53.49-25.66,117.2-9.19,117.2-9.19
						s-25.36,40.8-87.89,69.61c-33.1,15.25-99.21,34.67-130.2,43.43L4577.65,9734.46z"/>
					<path class="st5" d="M4812.48,9616.77c0,0,19.4,85.35-43.1,118.03c-73.28,38.31-191.74-0.33-191.74-0.33l16.75-4.65
						c30.98-8.76,97.09-28.18,130.2-43.43C4787.13,9657.57,4812.48,9616.77,4812.48,9616.77z"/>
				</g>
				<g transform="matrix(1,0,0,1,1.14045,2.9685)">
					<g transform="matrix(0.536412,0.553125,-0.553125,0.536412,246.044,-76.3354)">
						<path class="st8" d="M12130.97,4792.41c30.12-28.57,64.15-82.84,117.64-108.5c53.49-25.67,117.2-9.19,117.2-9.19
							s-25.36,40.8-87.89,69.61c-33.1,15.25-99.21,34.67-130.2,43.43L12130.97,4792.41z"/>
					</g>
					<g transform="matrix(0.536412,0.553125,-0.553125,0.536412,246.044,-76.3354)">
						<path class="st5" d="M12365.81,4674.71c0,0,19.4,85.35-43.1,118.03c-73.28,38.31-191.74-0.33-191.74-0.33l16.75-4.65
							c30.98-8.76,97.09-28.18,130.2-43.43C12340.45,4715.51,12365.81,4674.71,12365.81,4674.71z"/>
					</g>
				</g>
				<g transform="matrix(1,0,0,1,0.412246,1.67736)">
					<g transform="matrix(0.78086,0.311806,-0.311806,0.78086,115.916,-47.2079)">
						<path class="st8" d="M8788.47,8705.44c30.12-28.57,64.15-82.84,117.64-108.5c53.49-25.66,117.2-9.19,117.2-9.19
							s-25.36,40.8-87.89,69.61c-33.1,15.25-99.21,34.67-130.2,43.43L8788.47,8705.44z"/>
					</g>
					<g transform="matrix(0.78086,0.311806,-0.311806,0.78086,115.916,-47.2079)">
						<path class="st5" d="M9023.31,8587.74c0,0,19.4,85.35-43.1,118.03c-73.28,38.31-191.74-0.33-191.74-0.33l16.75-4.65
							c30.98-8.76,97.09-28.18,130.2-43.43C8997.95,8628.54,9023.31,8587.74,9023.31,8587.74z"/>
					</g>
				</g>
				<g transform="matrix(1,0,0,1,1.31689,-0.603619)">
					<g transform="matrix(0.319901,0.643175,0.643175,-0.319901,-127.96,292.125)">
						<path class="st8" d="M14031.17,189.14c30.12-28.57,64.15-82.84,117.64-108.5c53.49-25.66,117.2-9.19,117.2-9.19
							s-25.36,40.8-87.89,69.61c-33.1,15.25-99.21,34.67-130.2,43.43L14031.17,189.14z"/>
					</g>
					<g transform="matrix(0.319901,0.643175,0.643175,-0.319901,-127.96,292.125)">
						<path class="st5" d="M14266.01,71.44c0,0,19.4,85.35-43.1,118.03c-73.28,38.31-191.74-0.33-191.74-0.33l16.75-4.65
							c30.98-8.76,97.09-28.18,130.2-43.43C14240.65,112.24,14266.01,71.44,14266.01,71.44z"/>
					</g>
				</g>
				<g transform="matrix(0.988465,-0.151449,0.151449,0.988465,-51.0003,46.9826)">
					<path class="st8" d="M3229.35,10098.92c-17.35-5.16-86.7-31.42-85.87-121.47c0.54-58.35,40.13-102.25,57.31-136.83l18.85,134.9
						c5.29,37.6,13.61,124.44,13.61,124.44L3229.35,10098.92z"/>
					<path class="st5" d="M3211.78,9850.17c19.97,18.31,60.76,60.48,67.62,104.93c11.88,76.96-32.37,130.15-43.62,142.24l-2.54,2.62
						c0,0-8.32-86.84-13.61-124.44c-5.29-37.6-18.85-134.9-18.85-134.9L3211.78,9850.17z"/>
				</g>
				<g transform="matrix(0.989098,-0.147258,0.147258,0.989098,-25.1535,31.8803)">
					<g transform="matrix(0.38026,0.659774,-0.659774,0.38026,316.485,-139.575)">
						<path class="st8" d="M12384.04,3257.64c-17.35-5.16-76.88-30.66-76.05-120.71c0.54-58.35,30.31-103.02,47.49-137.59
							l18.85,134.9c5.29,37.6,13.61,124.44,13.61,124.44L12384.04,3257.64z"/>
					</g>
					<g transform="matrix(0.38026,0.659774,-0.659774,0.38026,316.485,-139.575)">
						<path class="st5" d="M12366.47,3008.89c19.97,18.31,60.76,60.48,67.62,104.93c11.88,76.96-32.37,130.15-43.62,142.24
							l-2.54,2.62c0,0-8.32-86.84-13.61-124.44c-5.29-37.6-18.85-134.9-18.85-134.9L12366.47,3008.89z"/>
					</g>
				</g>
				<g transform="matrix(1,0,0,1,-0.296424,1.87541)">
					<g transform="matrix(0.506811,-0.725015,0.725015,0.506811,-262.211,267.175)">
						<path class="st5" d="M-5231.85,9787.19c-17.35-5.16-86.7-31.42-85.87-121.47c0.54-58.35,40.13-102.25,57.31-136.83
							l18.85,134.9c5.29,37.6,13.61,124.44,13.61,124.44L-5231.85,9787.19z"/>
					</g>
					<g transform="matrix(0.506811,-0.725015,0.725015,0.506811,-262.211,267.175)">
						<path class="st8" d="M-5249.42,9538.44c19.97,18.31,60.76,60.48,67.62,104.93c11.88,76.96-32.37,130.15-43.62,142.24
							l-2.54,2.62c0,0-8.32-86.84-13.61-124.44c-5.29-37.6-18.85-134.9-18.85-134.9L-5249.42,9538.44z"/>
					</g>
				</g>
				<g transform="matrix(1,0,0,1,1.15127,2.75362)">
					<g transform="matrix(0.607131,-0.278221,0.278221,0.607131,-112.152,-35.9188)">
						<path class="st5" d="M558.07,14272.23c-17.35-5.16-86.7-31.42-85.87-121.47c0.54-58.35,40.13-102.25,57.31-136.83l18.85,134.9
							c5.29,37.6,13.61,124.44,13.61,124.44L558.07,14272.23z"/>
					</g>
					<g transform="matrix(0.607131,-0.278221,0.278221,0.607131,-112.152,-35.9188)">
						<path class="st8" d="M540.5,14023.48c19.97,18.31,60.76,60.48,67.62,104.93c11.88,76.96-32.37,130.15-43.62,142.25l-2.54,2.62
							c0,0-8.32-86.84-13.61-124.44c-5.29-37.59-18.85-134.9-18.85-134.9L540.5,14023.48z"/>
					</g>
				</g>
				<g transform="matrix(1,0,0,1,0.559438,2.14232)">
					<g transform="matrix(0.605028,0.442689,-0.442689,0.605028,172.338,-124.062)">
						<path class="st8" d="M11465.93,6577.8c-17.35-5.16-71.37-47.21-77.33-121.84c-4.64-58.17,31.59-101.88,48.76-136.46
							l18.85,134.9c5.29,37.6,13.61,124.44,13.61,124.44L11465.93,6577.8z"/>
					</g>
					<g transform="matrix(0.605028,0.442689,-0.442689,0.605028,172.338,-124.062)">
						<path class="st5" d="M11448.36,6329.06c19.97,18.31,60.76,60.48,67.62,104.93c11.88,76.96-32.37,130.15-43.62,142.24
							l-2.54,2.62c0,0-8.32-86.84-13.61-124.44c-5.29-37.6-18.85-134.9-18.85-134.9L11448.36,6329.06z"/>
					</g>
				</g>
				<g transform="matrix(1,0,0,1,-1.97406,1.62976)">
					<path class="st8" d="M4376.49,9663.92c0,0,38.17-74.48,99.2-101.87c78.22-35.1,161.6-1.37,181.22,7.61l4.3,2.06
						c0,0-58.57,12.95-121.38,32.23c-31.4,9.64-72.24,24.63-105.22,37.22L4376.49,9663.92z"/>
					<path class="st5" d="M4654.89,9586.5c-12.71,26.96-44.69,82.7-97.24,97.25c-70.07,19.41-181.16-19.83-181.16-19.83l58.12-22.76
						c32.98-12.58,73.82-27.58,105.22-37.22c62.81-19.28,121.38-32.23,121.38-32.23L4654.89,9586.5z"/>
				</g>
				<g transform="matrix(1,0,0,1,0.502925,0.547406)">
					<g transform="matrix(-0.48612,0.27981,0.27981,0.48612,210.112,-172.558)">
						<path class="st8" d="M1079.81,16897.57c0,0,38.17-74.48,99.2-101.87c78.21-35.1,161.6-1.37,181.22,7.61l4.3,2.06
							c0,0-58.57,12.95-121.38,32.23c-31.4,9.64-72.24,24.63-105.22,37.22L1079.81,16897.57z"/>
					</g>
					<g transform="matrix(-0.48612,0.27981,0.27981,0.48612,210.112,-172.558)">
						<path class="st5" d="M1358.21,16820.14c-12.71,26.96-44.69,82.7-97.24,97.26c-70.07,19.41-181.16-19.83-181.16-19.83
							l58.12-22.76c32.98-12.58,73.82-27.58,105.22-37.22c62.81-19.28,121.38-32.23,121.38-32.23L1358.21,16820.14z"/>
					</g>
				</g>
				<g transform="matrix(1,0,0,1,0.330779,1.8664)">
					<g transform="matrix(0.748097,0.357585,-0.357585,0.748097,103.263,-112.19)">
						<path class="st8" d="M9003.37,8009.46c0,0,38.17-74.48,99.2-101.87c78.22-35.1,161.6-1.37,181.22,7.61l4.3,2.06
							c0,0-58.57,12.95-121.38,32.23c-31.4,9.64-72.24,24.63-105.22,37.22L9003.37,8009.46z"/>
					</g>
					<g transform="matrix(0.748097,0.357585,-0.357585,0.748097,103.263,-112.19)">
						<path class="st5" d="M9281.77,7932.04c-12.71,26.96-44.69,82.7-97.24,97.26c-70.07,19.41-181.16-19.83-181.16-19.83
							l58.12-22.76c32.98-12.58,73.82-27.58,105.22-37.22c62.81-19.28,121.38-32.23,121.38-32.23L9281.77,7932.04z"/>
					</g>
				</g>
				<g>
					<g transform="matrix(-0.480779,0.478027,0.478027,0.480779,114.005,-166.618)">
						<path class="st8" d="M4593.9,13517.17c0,0,38.17-74.48,99.2-101.87c78.22-35.1,161.6-1.37,181.22,7.61l4.3,2.06
							c0,0-58.57,12.95-121.38,32.23c-31.4,9.64-72.24,24.63-105.22,37.22L4593.9,13517.17z"/>
					</g>
					<g transform="matrix(-0.480779,0.478027,0.478027,0.480779,114.005,-166.618)">
						<path class="st5" d="M4872.3,13439.75c-12.71,26.96-44.69,82.7-97.24,97.26c-70.07,19.41-181.16-19.83-181.16-19.83
							l58.12-22.76c32.98-12.58,73.82-27.58,105.22-37.22c62.81-19.28,121.38-32.23,121.38-32.23L4872.3,13439.75z"/>
					</g>
				</g>
				<g transform="matrix(1,0,0,1,2.02618,0)">
					<g transform="matrix(-0.03047,0.759177,0.759177,0.03047,-116.887,52.4912)">
						<path class="st8" d="M11383.82,6292.74c0,0,38.17-74.48,99.21-101.87c78.22-35.1,161.59-1.37,181.22,7.61l4.3,2.06
							c0,0-58.57,12.95-121.38,32.23c-31.4,9.64-72.24,24.63-105.22,37.22L11383.82,6292.74z"/>
					</g>
					<g transform="matrix(-0.03047,0.759177,0.759177,0.03047,-116.887,52.4912)">
						<path class="st5" d="M11662.22,6215.32c-12.71,26.96-44.69,82.7-97.24,97.26c-70.07,19.41-181.16-19.83-181.16-19.83
							l58.12-22.76c32.98-12.58,73.82-27.58,105.22-37.22c62.81-19.29,121.38-32.23,121.38-32.23L11662.22,6215.32z"/>
					</g>
				</g>
				<g transform="matrix(1,0,0,1,-0.0530541,2.13044)">
					<g transform="matrix(0.289547,0.702454,-0.702454,0.289547,356.774,-122.109)">
						<path class="st8" d="M12424.74-77.24c0,0,38.17-74.48,99.21-101.87c78.22-35.1,161.59-1.37,181.22,7.61l4.3,2.06
							c0,0-58.57,12.95-121.38,32.23c-31.4,9.64-72.24,24.63-105.22,37.22L12424.74-77.24z"/>
					</g>
					<g transform="matrix(0.289547,0.702454,-0.702454,0.289547,356.774,-122.109)">
						<path class="st5" d="M12703.14-154.66c-12.71,26.96-44.69,82.7-97.24,97.26c-70.07,19.41-181.16-19.83-181.16-19.83
							l58.12-22.75c32.98-12.58,73.82-27.58,105.22-37.22c62.81-19.28,121.38-32.23,121.38-32.23L12703.14-154.66z"/>
					</g>
				</g>
				<g transform="matrix(1,0,0,1,1.39549,-0.603619)">
					<g transform="matrix(0.131507,0.838958,0.838958,-0.131507,-158.063,157.364)">
						<path class="st8" d="M11238.13,3697.3c0,0,38.17-74.48,99.2-101.87c78.22-35.1,161.6-1.37,181.22,7.61l4.3,2.06
							c0,0-58.57,12.95-121.38,32.23c-31.4,9.64-72.24,24.63-105.22,37.22L11238.13,3697.3z"/>
					</g>
					<g transform="matrix(0.131507,0.838958,0.838958,-0.131507,-158.063,157.364)">
						<path class="st5" d="M11516.53,3619.87c-12.71,26.96-44.69,82.7-97.24,97.26c-70.07,19.41-181.16-19.83-181.16-19.83
							l58.12-22.76c32.98-12.58,73.82-27.58,105.22-37.22c62.81-19.28,121.38-32.23,121.38-32.23L11516.53,3619.87z"/>
					</g>
				</g>
			</g>
			<g transform="matrix(-0.109402,0.00372979,0.00372979,0.109402,372.825,688.03)">
				<path class="st5" d="M-5048.66,8324.18c-24.04,52.3-62.66,149.44-84.04,272.23c-14.72,84.58-21.26,181.34-9.16,284
					c21.16,179.5,91.72,362.68,232.07,501.63c116.07,114.91,279.92,199.42,502.87,226.6c6.57,0.83,11.23,6.84,10.4,13.41
					c-0.83,6.57-6.84,11.23-13.41,10.4c-228.27-29.86-395.37-118.13-513.3-236.95c-141.9-142.96-212.6-330.25-232.59-513.51
					c-11.36-104.1-3.91-202.07,11.76-287.61c22.66-123.74,62.49-221.44,87.21-274.01c1.05-2.26,3.74-3.24,6-2.19
					C-5048.59,8319.23-5047.61,8321.92-5048.66,8324.18z"/>
				<g transform="matrix(1,0,0,1,-0.184061,-2.30694)">
					<g transform="matrix(1,0,0,1,-1.14971,-1.48972)">
						<path class="st5" d="M-4555.74,9324.88c8.63,6.56,84.03,65.29,100.3,119.5c28.5,95-42.42,148.12-45.08,150.06
							c-3.02-31.83-9.37-87.84-18.88-127.36C-4528.85,9427.8-4545.74,9362.87-4555.74,9324.88z"/>
					</g>
					<path class="st8" d="M-4556.89,9323.38c10,37.99,26.88,102.92,36.34,142.2c9.51,39.53,15.86,95.54,18.88,127.37l-0.07,0.06
						c0,0-87.46-61.96-89.43-135.13c-1.92-71.48,33.5-135.12,33.5-135.12L-4556.89,9323.38z"/>
				</g>
				<g>
					<g transform="matrix(-0.487725,-0.228163,-0.228163,0.487725,439.034,-36.5721)">
						<path class="st8" d="M2603.87,18115.92c8.63,6.56,84.03,65.29,100.3,119.5c28.5,95-42.42,148.12-45.08,150.06
							c-3.02-31.83-9.37-87.84-18.88-127.36C2630.76,18218.84,2613.87,18153.91,2603.87,18115.92z"/>
					</g>
					<g transform="matrix(-0.487725,-0.228163,-0.228163,0.487725,438.133,-36.1078)">
						<path class="st5" d="M2602.72,18114.43c10,37.99,26.88,102.92,36.34,142.2c9.51,39.53,15.86,95.54,18.88,127.37l-0.07,0.05
							c0,0-87.46-61.96-89.43-135.13c-1.92-71.47,33.5-135.12,33.5-135.12L2602.72,18114.43z"/>
					</g>
				</g>
				<g transform="matrix(0.997417,-0.0718224,0.0718224,0.997417,-11.0119,12.0078)">
					<g transform="matrix(-0.573077,0.514733,0.514733,0.573077,138.598,-242.632)">
						<path class="st5" d="M12952.26,2786.1c8.63,6.56,84.03,65.29,100.3,119.5c28.5,95-42.42,148.12-45.08,150.06
							c-3.02-31.83-9.37-87.84-18.88-127.36C12979.15,2889.02,12962.26,2824.09,12952.26,2786.1z"/>
					</g>
					<g transform="matrix(-0.573077,0.514733,0.514733,0.573077,138.706,-241.186)">
						<path class="st8" d="M12951.11,2784.61c10,37.99,26.88,102.92,36.34,142.2c9.51,39.53,15.86,95.54,18.88,127.37l-0.07,0.06
							c0,0-87.46-61.96-89.43-135.13c-1.92-71.48,33.5-135.12,33.5-135.12L12951.11,2784.61z"/>
					</g>
				</g>
				<g transform="matrix(1,0,0,1,1.50073,2.485)">
					<g transform="matrix(-0.366023,0.750241,0.750241,0.366023,-28.2644,-168.22)">
						<path class="st5" d="M12381.4-1038.94c8.63,6.56,84.03,65.29,100.3,119.5c28.5,95-42.42,148.12-45.09,150.06
							c-3.01-31.83-9.37-87.84-18.88-127.36C12408.28-936.02,12391.39-1000.95,12381.4-1038.94z"/>
					</g>
					<g transform="matrix(-0.366023,0.750241,0.750241,0.366023,-27.5675,-166.812)">
						<path class="st8" d="M12380.25-1040.43c10,37.99,26.88,102.92,36.34,142.2c9.51,39.53,15.86,95.54,18.88,127.37l-0.07,0.06
							c0,0-87.46-61.96-89.43-135.13c-1.92-71.48,33.5-135.12,33.5-135.12L12380.25-1040.43z"/>
					</g>
				</g>
				<g transform="matrix(0.992499,-0.122253,0.122253,0.992499,-32.0645,27.562)">
					<g transform="matrix(0.619499,0.308076,-0.308076,0.619499,114.79,-40.3968)">
						<path class="st5" d="M-2552,14797.62c8.63,6.56,84.03,65.29,100.3,119.5c28.5,95-42.42,148.12-45.08,150.06
							c-3.02-31.83-9.37-87.84-18.88-127.36C-2525.12,14900.54-2542.01,14835.62-2552,14797.62z"/>
					</g>
					<g transform="matrix(0.619499,0.308076,-0.308076,0.619499,115.043,-39.1197)">
						<path class="st8" d="M-2553.15,14796.13c10,37.99,26.88,102.92,36.34,142.2c9.51,39.53,15.86,95.54,18.88,127.37l-0.07,0.06
							c0,0-87.46-61.96-89.43-135.13c-1.92-71.48,33.5-135.12,33.5-135.12L-2553.15,14796.13z"/>
					</g>
				</g>
				<g transform="matrix(1,0,0,1,-0.123142,0.565683)">
					<g transform="matrix(0.103897,0.615797,-0.615797,0.103897,391.968,-114.009)">
						<path class="st5" d="M12061.92,10700.99c8.63,6.56,84.03,65.29,100.3,119.5c28.5,95-42.42,148.12-45.08,150.06
							c-3.02-31.83-9.37-87.84-18.88-127.36C12088.8,10803.91,12071.91,10738.98,12061.92,10700.99z"/>
					</g>
					<g transform="matrix(0.103897,0.615797,-0.615797,0.103897,391.17,-113.147)">
						<path class="st8" d="M12060.76,10699.5c10,37.99,26.88,102.92,36.33,142.2c9.51,39.53,15.86,95.54,18.88,127.37l-0.07,0.06
							c0,0-87.46-61.96-89.43-135.13c-1.92-71.48,33.5-135.12,33.5-135.12L12060.76,10699.5z"/>
					</g>
				</g>
				<g transform="matrix(1,0,0,1,1.32131,1.67736)">
					<g transform="matrix(0.129188,0.873244,0.989233,-0.146348,-233.259,126.793)">
						<path class="st5" d="M9533.64-6281.34c8.63,6.56,84.03,65.29,100.3,119.5c28.5,95-42.42,148.12-45.08,150.06
							c-3.02-31.83-9.37-87.84-18.88-127.36C9560.52-6178.42,9543.64-6243.34,9533.64-6281.34z"/>
					</g>
					<g transform="matrix(0.129188,0.873244,0.989233,-0.146348,-231.636,127.579)">
						<path class="st8" d="M9532.49-6282.83c10,37.99,26.88,102.92,36.34,142.2c9.51,39.53,15.86,95.54,18.88,127.37l-0.07,0.06
							c0,0-87.46-61.96-89.43-135.13c-1.92-71.48,33.5-135.12,33.5-135.12L9532.49-6282.83z"/>
					</g>
				</g>
				<g transform="matrix(1,0,0,1,-0.538615,1.93164)">
					<g transform="matrix(-0.415972,0.310646,0.351908,0.471223,170.832,-194.541)">
						<path class="st5" d="M17929.35,6055.75c8.63,6.56,84.03,65.29,100.3,119.5c28.5,95-42.42,148.12-45.08,150.06
							c-3.02-31.83-9.37-87.84-18.88-127.36C17956.23,6158.67,17939.35,6093.74,17929.35,6055.75z"/>
					</g>
					<g transform="matrix(-0.415972,0.310646,0.351908,0.471223,170.878,-193.482)">
						<path class="st8" d="M17928.2,6054.26c10,37.99,26.88,102.92,36.34,142.2c9.51,39.53,15.86,95.54,18.88,127.37l-0.07,0.06
							c0,0-87.46-61.96-89.43-135.13c-1.92-71.48,33.5-135.12,33.5-135.12L17928.2,6054.26z"/>
					</g>
				</g>
				<g transform="matrix(1,0,0,1,-1.0057,1.79491)">
					<path class="st8" d="M-4740.67,9734.44c30.12-28.57,64.15-82.84,117.64-108.5c53.49-25.66,117.2-9.19,117.2-9.19
						s-25.36,40.8-87.89,69.61c-33.1,15.25-99.21,34.67-130.2,43.43L-4740.67,9734.44z"/>
					<path class="st5" d="M-4505.83,9616.75c0,0,19.4,85.35-43.1,118.03c-73.28,38.31-191.74-0.33-191.74-0.33l16.75-4.65
						c30.98-8.76,97.09-28.18,130.2-43.43C-4531.19,9657.55-4505.83,9616.75-4505.83,9616.75z"/>
				</g>
				<g transform="matrix(1,0,0,1,1.14045,2.9685)">
					<g transform="matrix(0.536412,0.553125,-0.553125,0.536412,246.044,-76.3354)">
						<path class="st8" d="M3711.58,13474.09c30.12-28.57,64.15-82.84,117.64-108.5c53.49-25.66,117.2-9.19,117.2-9.19
							s-25.36,40.8-87.89,69.61c-33.1,15.25-99.21,34.67-130.2,43.43L3711.58,13474.09z"/>
					</g>
					<g transform="matrix(0.536412,0.553125,-0.553125,0.536412,246.044,-76.3354)">
						<path class="st5" d="M3946.42,13356.39c0,0,19.41,85.35-43.1,118.03c-73.28,38.31-191.74-0.33-191.74-0.33l16.75-4.65
							c30.98-8.76,97.09-28.18,130.2-43.43C3921.06,13397.19,3946.42,13356.39,3946.42,13356.39z"/>
					</g>
				</g>
				<g transform="matrix(1,0,0,1,0.412246,1.67736)">
					<g transform="matrix(0.78086,0.311806,-0.311806,0.78086,115.916,-47.2079)">
						<path class="st8" d="M-1503.84,12815.25c30.12-28.57,64.15-82.84,117.64-108.5c53.49-25.66,117.2-9.19,117.2-9.19
							s-25.36,40.8-87.89,69.61c-33.1,15.25-99.21,34.67-130.2,43.43L-1503.84,12815.25z"/>
					</g>
					<g transform="matrix(0.78086,0.311806,-0.311806,0.78086,115.916,-47.2079)">
						<path class="st5" d="M-1269,12697.55c0,0,19.4,85.35-43.1,118.03c-73.28,38.31-191.74-0.33-191.74-0.33l16.75-4.65
							c30.98-8.76,97.09-28.18,130.2-43.43C-1294.36,12738.35-1269,12697.55-1269,12697.55z"/>
					</g>
				</g>
				<g transform="matrix(1,0,0,1,1.31689,-0.603619)">
					<g transform="matrix(0.319901,0.643175,0.643175,-0.319901,-127.96,292.125)">
						<path class="st8" d="M8254.26-11425.55c30.12-28.57,64.15-82.84,117.64-108.5c53.49-25.66,117.2-9.19,117.2-9.19
							s-25.36,40.8-87.89,69.61c-33.1,15.25-99.21,34.67-130.2,43.43L8254.26-11425.55z"/>
					</g>
					<g transform="matrix(0.319901,0.643175,0.643175,-0.319901,-127.96,292.125)">
						<path class="st5" d="M8489.09-11543.24c0,0,19.4,85.35-43.1,118.03c-73.28,38.31-191.74-0.33-191.74-0.33l16.75-4.65
							c30.98-8.76,97.09-28.18,130.2-43.43C8463.74-11502.44,8489.09-11543.24,8489.09-11543.24z"/>
					</g>
				</g>
				<g transform="matrix(0.988465,-0.151449,0.151449,0.988465,-51.0003,46.9826)">
					<path class="st8" d="M-5981.48,8687.65c-17.35-5.16-86.7-31.42-85.87-121.47c0.54-58.35,40.13-102.25,57.31-136.83l18.85,134.9
						c5.29,37.6,13.61,124.44,13.61,124.44L-5981.48,8687.65z"/>
					<path class="st5" d="M-5999.04,8438.9c19.97,18.31,60.76,60.48,67.62,104.93c11.88,76.96-32.37,130.15-43.62,142.24l-2.54,2.62
						c0,0-8.32-86.84-13.61-124.44c-5.29-37.6-18.85-134.9-18.85-134.9L-5999.04,8438.9z"/>
				</g>
				<g transform="matrix(0.989098,-0.147258,0.147258,0.989098,-25.1535,31.8803)">
					<g transform="matrix(0.38026,0.659774,-0.659774,0.38026,316.485,-139.575)">
						<path class="st8" d="M4779.09,12844.06c-17.35-5.16-76.88-30.66-76.05-120.71c0.54-58.35,30.31-103.02,47.49-137.59
							l18.85,134.9c5.29,37.6,13.61,124.44,13.61,124.44L4779.09,12844.06z"/>
					</g>
					<g transform="matrix(0.38026,0.659774,-0.659774,0.38026,316.485,-139.575)">
						<path class="st5" d="M4761.52,12595.31c19.97,18.31,60.76,60.48,67.62,104.93c11.88,76.96-32.37,130.15-43.62,142.25
							l-2.54,2.62c0,0-8.32-86.84-13.61-124.44c-5.29-37.6-18.85-134.9-18.85-134.9L4761.52,12595.31z"/>
					</g>
				</g>
				<g transform="matrix(1,0,0,1,-0.296424,1.87541)">
					<g transform="matrix(0.506811,-0.725015,0.725015,0.506811,-262.211,267.175)">
						<path class="st5" d="M-11267.11,1153.46c-17.35-5.16-86.7-31.42-85.87-121.47c0.54-58.35,40.13-102.25,57.31-136.83
							l18.85,134.9c5.29,37.6,13.61,124.44,13.61,124.44L-11267.11,1153.46z"/>
					</g>
					<g transform="matrix(0.506811,-0.725015,0.725015,0.506811,-262.211,267.175)">
						<path class="st8" d="M-11284.68,904.71c19.97,18.31,60.76,60.48,67.62,104.93c11.88,76.96-32.37,130.15-43.62,142.24
							l-2.54,2.62c0,0-8.32-86.84-13.61-124.44c-5.29-37.6-18.85-134.9-18.85-134.9L-11284.68,904.71z"/>
					</g>
				</g>
				<g transform="matrix(1,0,0,1,1.15127,2.75362)">
					<g transform="matrix(0.607131,-0.278221,0.278221,0.607131,-112.152,-35.9188)">
						<path class="st5" d="M-12126.34,8459.51c-17.35-5.16-86.7-31.42-85.87-121.47c0.54-58.35,40.13-102.25,57.31-136.83
							l18.85,134.9c5.29,37.6,13.61,124.44,13.61,124.44L-12126.34,8459.51z"/>
					</g>
					<g transform="matrix(0.607131,-0.278221,0.278221,0.607131,-112.152,-35.9188)">
						<path class="st8" d="M-12143.91,8210.76c19.97,18.31,60.76,60.48,67.62,104.93c11.88,76.96-32.37,130.15-43.62,142.24
							l-2.54,2.62c0,0-8.32-86.84-13.61-124.44c-5.29-37.59-18.85-134.9-18.85-134.9L-12143.91,8210.76z"/>
					</g>
				</g>
				<g transform="matrix(1,0,0,1,0.559438,2.14232)">
					<g transform="matrix(0.605028,0.442689,-0.442689,0.605028,172.338,-124.062)">
						<path class="st8" d="M1434.74,13917.43c-17.35-5.16-71.37-47.21-77.33-121.84c-4.64-58.17,31.59-101.88,48.76-136.46
							l18.85,134.9c5.29,37.6,13.61,124.44,13.61,124.44L1434.74,13917.43z"/>
					</g>
					<g transform="matrix(0.605028,0.442689,-0.442689,0.605028,172.338,-124.062)">
						<path class="st5" d="M1417.18,13668.68c19.97,18.31,60.76,60.48,67.62,104.93c11.88,76.96-32.37,130.15-43.62,142.24
							l-2.54,2.62c0,0-8.32-86.84-13.61-124.44c-5.29-37.6-18.85-134.9-18.85-134.9L1417.18,13668.68z"/>
					</g>
				</g>
				<g transform="matrix(1,0,0,1,-1.97406,1.62976)">
					<path class="st8" d="M-4941.82,9663.91c0,0,38.17-74.48,99.2-101.87c78.22-35.1,161.6-1.37,181.22,7.61l4.3,2.06
						c0,0-58.57,12.95-121.38,32.23c-31.4,9.64-72.24,24.63-105.22,37.22L-4941.82,9663.91z"/>
					<path class="st5" d="M-4663.42,9586.48c-12.71,26.96-44.69,82.7-97.24,97.26c-70.07,19.41-181.16-19.83-181.16-19.83
						l58.12-22.76c32.98-12.58,73.82-27.58,105.22-37.22c62.81-19.28,121.38-32.23,121.38-32.23L-4663.42,9586.48z"/>
				</g>
				<g transform="matrix(1,0,0,1,0.502925,0.547406)">
					<g transform="matrix(-0.48612,0.27981,0.27981,0.48612,210.112,-172.558)">
						<path class="st8" d="M15478.18,8609.85c0,0,38.17-74.48,99.2-101.87c78.21-35.1,161.6-1.37,181.22,7.61l4.3,2.06
							c0,0-58.57,12.95-121.38,32.23c-31.4,9.64-72.24,24.63-105.22,37.21L15478.18,8609.85z"/>
					</g>
					<g transform="matrix(-0.48612,0.27981,0.27981,0.48612,210.112,-172.558)">
						<path class="st5" d="M15756.58,8532.42c-12.71,26.96-44.69,82.7-97.24,97.26c-70.07,19.41-181.16-19.83-181.16-19.83
							l58.12-22.76c32.98-12.58,73.82-27.58,105.22-37.21c62.81-19.28,121.38-32.23,121.38-32.23L15756.58,8532.42z"/>
					</g>
				</g>
				<g transform="matrix(1,0,0,1,0.330779,1.8664)">
					<g transform="matrix(0.748097,0.357585,-0.357585,0.748097,103.263,-112.19)">
						<path class="st8" d="M-1136.05,12856.01c0,0,38.17-74.48,99.2-101.87c78.22-35.1,161.6-1.37,181.22,7.61l4.3,2.06
							c0,0-58.57,12.95-121.38,32.23c-31.4,9.64-72.24,24.63-105.22,37.22L-1136.05,12856.01z"/>
					</g>
					<g transform="matrix(0.748097,0.357585,-0.357585,0.748097,103.263,-112.19)">
						<path class="st5" d="M-857.65,12778.58c-12.71,26.96-44.69,82.7-97.24,97.26c-70.07,19.41-181.16-19.83-181.16-19.83
							l58.12-22.76c32.98-12.58,73.82-27.58,105.22-37.22c62.81-19.28,121.38-32.23,121.38-32.23L-857.65,12778.58z"/>
					</g>
				</g>
				<g>
					<g transform="matrix(-0.480779,0.478027,0.478027,0.480779,114.005,-166.618)">
						<path class="st8" d="M14340.37,3826.46c0,0,38.17-74.48,99.2-101.87c78.22-35.1,161.6-1.37,181.22,7.61l4.3,2.06
							c0,0-58.57,12.95-121.38,32.23c-31.4,9.64-72.24,24.63-105.22,37.22L14340.37,3826.46z"/>
					</g>
					<g transform="matrix(-0.480779,0.478027,0.478027,0.480779,114.005,-166.618)">
						<path class="st5" d="M14618.77,3749.03c-12.71,26.96-44.69,82.7-97.24,97.26c-70.07,19.41-181.16-19.83-181.16-19.83
							l58.12-22.76c32.98-12.58,73.82-27.58,105.22-37.22c62.81-19.28,121.38-32.23,121.38-32.23L14618.77,3749.03z"/>
					</g>
				</g>
				<g transform="matrix(1,0,0,1,2.02618,0)">
					<g transform="matrix(-0.03047,0.759177,0.759177,0.03047,-116.887,52.4912)">
						<path class="st8" d="M11875.64-5961.75c0,0,38.17-74.48,99.21-101.87c78.21-35.1,161.6-1.37,181.22,7.61l4.3,2.06
							c0,0-58.57,12.95-121.39,32.23c-31.4,9.64-72.24,24.63-105.22,37.22L11875.64-5961.75z"/>
					</g>
					<g transform="matrix(-0.03047,0.759177,0.759177,0.03047,-116.887,52.4912)">
						<path class="st5" d="M12154.04-6039.18c-12.71,26.96-44.69,82.7-97.24,97.26c-70.07,19.41-181.16-19.83-181.16-19.83
							l58.12-22.76c32.98-12.58,73.82-27.58,105.22-37.22c62.81-19.28,121.39-32.23,121.39-32.23L12154.04-6039.18z"/>
					</g>
				</g>
				<g transform="matrix(1,0,0,1,-0.0530541,2.13044)">
					<g transform="matrix(0.289547,0.702454,-0.702454,0.289547,356.774,-122.109)">
						<path class="st8" d="M7750.91,11261.62c0,0,38.17-74.48,99.2-101.87c78.22-35.1,161.6-1.37,181.22,7.61l4.3,2.06
							c0,0-58.57,12.95-121.38,32.23c-31.4,9.64-72.24,24.63-105.22,37.22L7750.91,11261.62z"/>
					</g>
					<g transform="matrix(0.289547,0.702454,-0.702454,0.289547,356.774,-122.109)">
						<path class="st5" d="M8029.31,11184.2c-12.71,26.96-44.69,82.7-97.24,97.26c-70.07,19.41-181.16-19.83-181.16-19.83
							l58.12-22.76c32.98-12.58,73.82-27.58,105.22-37.22c62.81-19.28,121.38-32.23,121.38-32.23L8029.31,11184.2z"/>
					</g>
				</g>
				<g transform="matrix(1,0,0,1,1.39549,-0.603619)">
					<g transform="matrix(0.131507,0.838958,0.838958,-0.131507,-158.063,157.364)">
						<path class="st8" d="M9538.83-7143.35c0,0,38.17-74.48,99.2-101.87c78.22-35.1,161.6-1.37,181.22,7.61l4.3,2.06
							c0,0-58.57,12.95-121.38,32.23c-31.4,9.64-72.24,24.63-105.22,37.22L9538.83-7143.35z"/>
					</g>
					<g transform="matrix(0.131507,0.838958,0.838958,-0.131507,-158.063,157.364)">
						<path class="st5" d="M9817.23-7220.78c-12.71,26.96-44.69,82.7-97.24,97.26c-70.07,19.41-181.16-19.83-181.16-19.83
							l58.12-22.76c32.98-12.58,73.82-27.57,105.22-37.22c62.81-19.28,121.38-32.23,121.38-32.23L9817.23-7220.78z"/>
					</g>
				</g>
			</g>
			<g transform="matrix(0.999419,-0.0340727,0.0340727,0.999419,-2.12957,-4.64473)">
				<g transform="matrix(0.815227,0,0,0.815227,-138.874,521.618)">
					<path class="st8" d="M1165.99,1321.75c0.52-1.62,2.03-2.71,3.73-2.71c1.7,0,3.21,1.09,3.74,2.71
						c5.02,15.47,13.66,42.03,16.42,50.55c0.53,1.62,2.03,2.71,3.74,2.71c8.96,0,36.89,0,53.15,0c1.7,0,3.21,1.1,3.73,2.71
						c0.53,1.62-0.05,3.39-1.42,4.39c-13.16,9.56-35.76,25.98-43,31.24c-1.38,1-1.95,2.77-1.42,4.39
						c2.77,8.52,11.4,35.08,16.42,50.56c0.52,1.62-0.05,3.39-1.42,4.39c-1.38,1-3.24,1-4.62,0c-13.16-9.56-35.76-25.98-43-31.24
						c-1.38-1-3.24-1-4.61,0c-7.25,5.26-29.85,21.68-43,31.24c-1.38,1-3.24,1-4.62,0c-1.38-1-1.95-2.77-1.42-4.39
						c5.02-15.47,13.66-42.04,16.42-50.56c0.52-1.62-0.05-3.39-1.43-4.39c-7.24-5.26-29.84-21.68-43-31.24
						c-1.38-1-1.95-2.77-1.43-4.39c0.53-1.62,2.04-2.71,3.74-2.71c16.26,0,44.2,0,53.15,0c1.7,0,3.21-1.1,3.74-2.71
						C1152.33,1363.78,1160.96,1337.22,1165.99,1321.75z"/>
				</g>
				<g transform="matrix(0.815227,0,0,0.815227,-138.874,521.618)">
					<g>
						<path class="st8" d="M1165.99,1321.75c0.52-1.62,2.03-2.71,3.73-2.71c1.7,0,3.21,1.09,3.74,2.71
							c5.02,15.47,13.66,42.03,16.42,50.55c0.53,1.62,2.03,2.71,3.74,2.71c8.96,0,36.89,0,53.15,0c1.7,0,3.21,1.1,3.73,2.71
							c0.53,1.62-0.05,3.39-1.42,4.39c-13.16,9.56-35.76,25.98-43,31.24c-1.38,1-1.95,2.77-1.42,4.39
							c2.77,8.52,11.4,35.08,16.42,50.56c0.52,1.62-0.05,3.39-1.42,4.39c-1.38,1-3.24,1-4.62,0c-13.16-9.56-35.76-25.98-43-31.24
							c-1.38-1-3.24-1-4.61,0c-7.25,5.26-29.85,21.68-43,31.24c-1.38,1-3.24,1-4.62,0c-1.38-1-1.95-2.77-1.42-4.39
							c5.02-15.47,13.66-42.04,16.42-50.56c0.52-1.62-0.05-3.39-1.43-4.39c-7.24-5.26-29.84-21.68-43-31.24
							c-1.38-1-1.95-2.77-1.43-4.39c0.53-1.62,2.04-2.71,3.74-2.71c16.26,0,44.2,0,53.15,0c1.7,0,3.21-1.1,3.74-2.71
							C1152.33,1363.78,1160.96,1337.22,1165.99,1321.75z"/>
						<path class="st6" d="M1121.87,1475.32c-1.12-0.05-2.22-0.41-3.18-1.11c-2.04-1.49-2.89-4.1-2.11-6.49l16.42-50.55
							c0.27-0.84-0.03-1.76-0.74-2.29l-43-31.24c-2.04-1.48-2.89-4.08-2.11-6.49c0.79-2.4,3.01-4.01,5.53-4.01l53.15,0
							c0.89,0,1.67-0.57,1.95-1.42l16.42-50.55c0.78-2.4,2.99-4.01,5.52-4.01c2.52-0.01,4.74,1.61,5.52,4.01l16.42,50.55
							c0.28,0.84,1.06,1.43,1.95,1.41l53.15,0c2.51-0.03,4.74,1.61,5.52,4.01c0.78,2.4-0.06,5.01-2.11,6.49l-43,31.24
							c-0.72,0.52-1.02,1.44-0.74,2.28l16.43,50.56c0.78,2.4-0.07,5.01-2.11,6.49c-2.04,1.48-4.79,1.48-6.83,0l-43-31.24
							c-0.72-0.52-1.68-0.52-2.4,0c-7.25,5.27-29.85,21.69-43.01,31.25C1124.43,1475,1123.14,1475.37,1121.87,1475.32z
							 M1169.8,1320.92c-0.03,0-0.06,0-0.08,0c-0.89,0-1.67,0.57-1.94,1.41c0,0,0,0,0,0l-16.42,50.55c-0.78,2.4-3,4.01-5.52,4.01
							l-53.15,0c-0.89,0-1.67,0.57-1.95,1.42c-0.27,0.84,0.03,1.76,0.74,2.28l43,31.25c2.04,1.48,2.89,4.09,2.11,6.49l-16.42,50.56
							c-0.28,0.85,0.02,1.76,0.74,2.29c0.72,0.53,1.69,0.52,2.41,0c13.16-9.56,35.76-25.98,43-31.24c2.04-1.48,4.78-1.49,6.82,0
							l43,31.24c0.72,0.53,1.69,0.52,2.41,0c0.72-0.52,1.02-1.44,0.74-2.29l-16.42-50.55c-0.78-2.39,0.06-5,2.11-6.49l43-31.24
							c0.72-0.52,1.02-1.44,0.74-2.29c-0.27-0.85-1.06-1.41-1.95-1.41l-53.15,0c-2.53,0.02-4.74-1.61-5.52-4.01l-16.42-50.55
							C1171.4,1321.51,1170.66,1320.95,1169.8,1320.92z M1165.99,1321.75l0.01,0L1165.99,1321.75z"/>
					</g>
				</g>
			</g>
		</g>
		<g transform="matrix(0.997095,0.0761656,-0.0761656,0.997095,46.7727,-91.0799)">
			<g>
				<defs>
					<polygon id="SVGID_1_" points="386.53,533.42 703.46,633.1 739.38,735.84 295.66,602.29 					"/>
				</defs>
				<use xlink:href="#SVGID_1_"  style="overflow:visible;fill-rule:evenodd;clip-rule:evenodd;fill:#118753;"/>
				<clipPath id="SVGID_00000129884985822256700990000013979107990463019648_">
					<use xlink:href="#SVGID_1_"  style="overflow:visible;"/>
				</clipPath>
				<g style="clip-path:url(#SVGID_00000129884985822256700990000013979107990463019648_);">
					<g transform="matrix(1,0,0,1,-2.77005,-4.57855)">
						<path class="st10" d="M354.13,549.32l374.64,114.5l14.52,52.31l-425.76-133.1L354.13,549.32z"/>
					</g>
				</g>
			</g>
			<path class="st6" d="M294.2,606.01c-1.29-0.5-2.23-1.64-2.48-3.02c-0.27-1.48,0.32-2.99,1.52-3.9l90.87-68.86
				c1.03-0.78,2.38-1.02,3.62-0.63l316.93,99.68c1.2,0.38,2.16,1.3,2.58,2.5l35.92,102.74c0.5,1.42,0.15,3-0.89,4.09
				c-1.04,1.09-2.6,1.5-4.04,1.06L294.5,606.12C294.4,606.08,294.3,606.05,294.2,606.01z M387.3,537.86l-82.96,62.87l428.67,129.03
				l-32.67-93.43L387.3,537.86z"/>
		</g>
		<g transform="matrix(1,0,0,1,0,-9.30905)">
			<g>
				<defs>
					<polygon id="SVGID_00000072255144747933108080000003828637639329740705_" points="329.03,1099.55 391.55,479.54 295.7,541.28 
						251.55,1067.85 					"/>
				</defs>
				
					<use xlink:href="#SVGID_00000072255144747933108080000003828637639329740705_"  style="overflow:visible;fill-rule:evenodd;clip-rule:evenodd;fill:#25B277;"/>
				<clipPath id="SVGID_00000170257196056378957550000008534566221442368429_">
					<use xlink:href="#SVGID_00000072255144747933108080000003828637639329740705_"  style="overflow:visible;"/>
				</clipPath>
				<g style="clip-path:url(#SVGID_00000170257196056378957550000008534566221442368429_);">
					<g transform="matrix(1,0,0,1,-2.77005,-4.57855)">
						<path class="st12" d="M323.98,509.13l-50.26,571.24l39.61,17.64l53.79-619.35L323.98,509.13z"/>
					</g>
				</g>
			</g>
			<path class="st6" d="M249.81,1071.45c-1.48-0.72-2.39-2.28-2.25-3.94l44.14-526.56c0.1-1.24,0.78-2.36,1.82-3.03l95.85-61.74
				c1.29-0.83,2.95-0.85,4.26-0.05c1.31,0.8,2.04,2.28,1.89,3.81l-62.52,620.01c-0.13,1.26-0.84,2.38-1.92,3.03
				c-1.08,0.65-2.41,0.75-3.57,0.27l-77.48-31.7C249.96,1071.52,249.89,1071.49,249.81,1071.45z M299.52,543.58l-43.73,521.68
				l69.8,28.56l61.15-606.42L299.52,543.58z"/>
		</g>
		<g transform="matrix(1,0,0,1,0,-9.30905)">
			<g>
				<defs>
					<polygon id="SVGID_00000158739893651875803570000005451532147212038843_" points="291.63,1085.21 375.28,1121.47 
						727.96,708.25 699.96,603.07 					"/>
				</defs>
				
					<use xlink:href="#SVGID_00000158739893651875803570000005451532147212038843_"  style="overflow:visible;fill-rule:evenodd;clip-rule:evenodd;fill:#25B277;"/>
				<clipPath id="SVGID_00000005951240308325031550000008059323961943853241_">
					<use xlink:href="#SVGID_00000158739893651875803570000005451532147212038843_"  style="overflow:visible;"/>
				</clipPath>
				<g style="clip-path:url(#SVGID_00000005951240308325031550000008059323961943853241_);">
					<g transform="matrix(1,0,0,1,-2.77005,-4.57855)">
						<path class="st12" d="M314.88,1109.03l407.19-480.88l18.2,44.05l-392.98,453.85L314.88,1109.03z"/>
					</g>
				</g>
			</g>
			<path class="st6" d="M289.9,1088.82c-1.09-0.52-1.88-1.51-2.16-2.69c-0.29-1.23,0.02-2.53,0.84-3.5l408.33-482.14
				c0.96-1.14,2.48-1.64,3.93-1.32c1.45,0.32,2.6,1.43,2.99,2.87l28,105.18c0.34,1.27,0.03,2.63-0.82,3.63l-352.68,413.22
				c-1.14,1.34-3.02,1.77-4.63,1.07l-83.64-36.26C289.99,1088.86,289.94,1088.84,289.9,1088.82z M698.07,611.5l-399.9,472.18
				l75.99,32.94l349.4-409.37L698.07,611.5z"/>
		</g>
	</g>
	<g transform="matrix(0.978099,-0.208142,0.208142,0.978099,-32.5945,52.3851)">
		<g transform="matrix(1.28934,-0.435475,0.435475,1.28934,-36.4513,-159.517)">
			<path class="st0" d="M98.55,374.86c0,0-18.55,42.68-55.78,30.24c-37.22-12.44-4.82-57.42-4.82-57.42s-51.26,2.88-51.64-39.13
				s46.14-39.59,46.14-39.59s-26.61-48.64,7.11-65.46c33.72-16.83,48.45,42.64,48.45,42.64s8.19-55.56,53.72-38.13
				c45.53,17.43,15.43,64.93,15.43,64.93s35.97-4.64,44.01,23.21c8.04,27.85-24.13,42.92-47.98,29.78c0,0,45.31,48.03,8.86,66.26
				S98.55,374.86,98.55,374.86z"/>
			<path class="st14" d="M87.88,217.67c2.83-4.74,6.38-9.34,10.82-13.07c10.37-8.71,25.18-13.73,46.35-5.31
				c20.82,8.28,28.49,21.74,30.22,35.12c1.43,11.08-1.65,22.3-4.93,30.5c6.92,0.79,15.29,2.78,22.5,7.42
				c6.98,4.5,13.02,11.27,15.97,21.6c5.48,18.71-3.15,32.92-16.88,40.17c-5.3,2.8-11.44,4.48-17.87,4.86
				c5.02,7.83,9.76,17.19,11.24,26.27c2.26,13.81-1.78,27.11-18.74,36.02c-15.83,8.37-30.4,7.96-42.56,4.37
				c-9.43-2.79-17.36-7.77-23.25-12.44c-4.5,5.86-10.76,12.43-18.72,17.16c-11.1,6.59-25.24,10.22-42.34,3.93
				c-16.01-5.85-22.19-16.01-23.4-27.01c-1.24-11.33,3.8-23.97,8.42-32.82c-9.88-1.55-23.12-5.29-32.65-14.29
				c-7.4-6.99-12.95-16.9-13.23-31.53c-0.54-18.37,6.88-29.68,16.05-36.9c7.63-6.02,16.83-8.94,24.26-10.36
				c-3.73-9.58-7.73-23.52-6.06-36.43c1.58-12.18,7.74-23.45,21.8-30.76c16-8.08,29.08-4,39.3,5.06
				C79.77,204.16,84.31,210.91,87.88,217.67z M98.55,374.86c0,0-18.55,42.68-55.78,30.24c-37.22-12.44-4.82-57.42-4.82-57.42
				s-51.26,2.88-51.64-39.13s46.14-39.59,46.14-39.59s-26.61-48.64,7.11-65.46c33.72-16.83,48.45,42.64,48.45,42.64
				s8.19-55.56,53.72-38.13c45.53,17.43,15.43,64.93,15.43,64.93s35.97-4.64,44.01,23.21c8.04,27.85-24.13,42.92-47.98,29.78
				c0,0,45.31,48.03,8.86,66.26S98.55,374.86,98.55,374.86z"/>
		</g>
		<g transform="matrix(1,0,0,1,-4.97398,5.17488)">
			<g transform="matrix(1,0,0,1,-1.52086,5.85749)">
				<path class="st15" d="M377.46,688.36c0,0-37.81-88.24-70.61-169.86c-18.45-45.92-35.29-89.68-42.84-114.28l-15.17,5.09
					c8.91,24.41,28.17,67.66,49.2,113C335.08,602.16,377.46,688.36,377.46,688.36z"/>
			</g>
			<g transform="matrix(1,0,0,1,-1.52086,5.85749)">
				<path class="st15" d="M392.07,653.28L314.3,352.46l-22.98,6.9L392.07,653.28z"/>
			</g>
			<g transform="matrix(1,0,0,1,-1.52086,5.85749)">
				<path class="st15" d="M424.66,640.62l-59.85-344.29l-31.24,6.92L424.66,640.62z"/>
			</g>
		</g>
	</g>
	<g>
		<g transform="matrix(1.98902,0,0,1.98902,-502.401,-402.429)">
			<path class="st0" d="M933.86,350.81c0,0-28.22-44.46,0-56.56c28.22-12.1,34.32,17.15,34.32,17.15s23.86-41.93,55.16-12.52
				c31.29,29.41-3.07,43.75-3.07,43.75s40.04-0.62,44.28,27.92c4.24,28.54-39.71,30.72-39.71,30.72s21.02,24.12-17.41,36.16
				c-38.43,12.04-31.68-29.4-31.68-29.4s-43.78,32.98-66.68-1.09C886.16,372.87,933.86,350.81,933.86,350.81z"/>
			<path class="st14" d="M969.32,303.18c4.57-5.76,12.41-13.83,22.39-17.09c9.72-3.18,21.52-2.22,34.57,9.68
				c11.37,10.34,14.9,19.33,14.96,26.48c0.06,6.91-3.24,12.44-7.1,16.54c6.85,1.27,15.06,3.73,21.82,8.51
				c6.92,4.9,12.38,12.1,13.88,22.48c1.61,11.4-2.89,19.4-9.81,24.96c-8.04,6.45-19.66,9.28-27.26,10.5
				c2.5,5.61,4.27,13.76-0.76,21.58c-3.45,5.37-10.28,10.85-23.26,14.78c-15.91,4.85-25.08,1.38-30.42-4.38
				c-5.47-5.89-6.82-14.88-6.99-21.44c-8.4,4.94-23.3,12.06-37.95,10.9c-10.2-0.8-20.32-5.39-28.36-17
				c-8.11-11.67-8.65-22.26-5.82-31.32c4.5-14.38,18.64-24.89,26.58-29.84c-3.76-7.5-9.73-21.34-9.63-33.66
				c0.08-10.5,4.04-20.05,15.9-24.83c11.35-4.62,19.59-3.48,25.53-0.24C963.52,293.02,967.18,298.6,969.32,303.18z M933.86,350.81
				c0,0-28.22-44.46,0-56.56c28.22-12.1,34.32,17.15,34.32,17.15s23.86-41.93,55.16-12.52c31.29,29.41-3.07,43.75-3.07,43.75
				s40.04-0.62,44.28,27.92c4.24,28.54-39.71,30.72-39.71,30.72s21.02,24.12-17.41,36.16c-38.43,12.04-31.68-29.4-31.68-29.4
				s-43.78,32.98-66.68-1.09C886.16,372.87,933.86,350.81,933.86,350.81z"/>
		</g>
		<g>
			<path class="st15" d="M1209.89,609.99l130.41-147.46l-18.91-14.78L1209.89,609.99z"/>
			<path class="st15" d="M1250,594.1l132.59-134.88l-8.82-8.14L1250,594.1z"/>
			<path class="st15" d="M1228.16,554.32l72.16-121.29l-10.56-5.69L1228.16,554.32z"/>
		</g>
	</g>
	<g>
		<g transform="matrix(0.251185,-1.26008,1.26008,0.251185,-365.35,855.368)">
			<path class="st0" d="M-242.21,421.25c0,0-28.22-44.46,0-56.56c28.22-12.1,37.3,6.24,37.3,6.24s19.64-29.64,52.18-1.61
				c27.82,23.97,6.45,46.36,6.45,46.36s30.24-3.19,34.76,25.31c5.59,35.27-33.56,37.39-33.56,37.39s7.45,28.66-25.44,35.36
				c-39.46,8.04-33.96-28.07-33.96-28.07s-39.62,25.79-62.52-8.28C-289.91,443.31-242.21,421.25-242.21,421.25z"/>
			<path class="st14" d="M-133.16,408.51c4.57,0.89,9.68,2.57,14.37,5.65c7.18,4.71,13.49,12.55,15.54,25.52
				c2.37,16.15-2.77,26.71-10.06,33.67c-7.24,6.92-16.93,10.06-23.61,11.47c-0.02,5.96-1.3,14.16-6.83,21.36
				c-4.69,6.1-12.38,11.78-25.41,14.22c-15.6,2.96-25.26-0.15-31.34-5.02c-6.59-5.27-9.12-13.1-10.02-19.52
				c-7.01,3.04-17.16,6.27-27.87,5.76c-11.96-0.56-24.6-5.55-34.83-20.08c-8.84-12.48-9.33-23.9-6.38-33.68
				c4.16-13.78,16.71-24.31,25.2-30.1c-3.75-8.18-8.55-20.99-8.31-32.47c0.25-11.54,4.6-22.03,17.7-27.12
				c12.63-4.96,21.92-4.85,28.61-2.94c5.3,1.51,9.14,4.12,11.78,6.61c5.04-4.67,13.63-10.45,25.18-10.43
				c8.57,0.01,18.98,3.07,30.99,12.91c10.79,8.8,15.26,17.78,16.81,25.63C-130.22,397.04-131.32,403.4-133.16,408.51z
				 M-242.21,421.25c0,0-28.22-44.46,0-56.56c28.22-12.1,37.3,6.24,37.3,6.24s19.64-29.64,52.18-1.61
				c27.82,23.97,6.45,46.36,6.45,46.36s30.24-3.19,34.76,25.31c5.59,35.27-33.56,37.39-33.56,37.39s7.45,28.66-25.44,35.36
				c-39.46,8.04-33.96-28.07-33.96-28.07s-39.62,25.79-62.52-8.28C-289.91,443.31-242.21,421.25-242.21,421.25z"/>
		</g>
		<g>
			<path class="st15" d="M424.75,1007.72l-201.67,89.97l8.96,17.88L424.75,1007.72z"/>
			<path class="st15" d="M485.03,997.41l-255.36,137.44l19,30.58L485.03,997.41z"/>
			<path class="st15" d="M458.33,1039.79l-200.98,163.83l13.22,15L458.33,1039.79z"/>
		</g>
	</g>
	<g transform="matrix(0.991674,-0.128774,0.128774,0.991674,-43.5623,27.7361)">
		<g transform="matrix(0.96641,-0.257004,0.257004,0.96641,34.1298,22.1069)">
			<path class="st0" d="M439.1,1708.58c0,0-36.25-11.22-23.46-54.97c14.62-50,60.98-18.88,60.98-18.88s-12.35-53.82,28.27-58.84
				c40.62-5.02,47.2,38.8,47.2,38.8s13.18-24.01,44.18-21.4c31,2.6,51.16,30.16,46.79,63.37c-4.08,30.93-40.48,43.51-40.48,43.51
				s31.92,23.74,25.84,52.76c-7.08,33.75-34.65,61.94-74.25,41.64c-27.13-13.92-19.97-61.5-19.97-61.5s-29.69,89.79-81.04,53.26
				C401.82,1749.81,439.1,1708.58,439.1,1708.58z"/>
			<path class="st14" d="M555.38,1597.2c3.15-2.79,7.02-5.59,11.66-7.96c7.76-3.95,17.7-6.59,30.08-5.82
				c19.17,1.28,35.03,10.66,45.21,24.86c9.47,13.19,13.89,30.71,11.42,49.78c-1.54,11.12-6.33,20.36-12.53,27.78
				c-6.4,7.65-14.25,13.3-20.93,17.18c5.04,5.65,10.62,13.18,14.24,21.92c3.74,9.02,5.54,19.2,3.15,29.92
				c-4.4,19.81-15.18,37.73-30.56,47.35c-14.92,9.34-34.22,11.57-56.72-0.26c-10.54-5.48-17-14.94-20.7-25.5
				c-1.03-2.93-1.83-5.94-2.46-8.96c-6.64,11.17-15.44,22.67-26.22,29.66c-14.64,9.49-32.57,11.84-53.69-2.62
				c-19.98-13.58-28.34-28.39-31.3-41.64c-3.58-16.08,1.24-30.52,6.21-40.14c-6.22-4.64-13.08-11.82-16.89-22.4
				c-3.55-9.84-4.85-22.78,0.58-39.6c7.19-22.35,19.53-31.1,31.92-33.65c10.39-2.14,21.16,0.53,29.36,3.76
				c-0.18-10.02,1.06-23.04,7.08-33.4c5.47-9.42,14.46-17.07,29.69-19c17.3-2.46,29.45,2.96,38.06,10.5
				C548.24,1584.41,552.5,1591.14,555.38,1597.2z M439.1,1708.58c0,0-36.25-11.22-23.46-54.97c14.62-50,60.98-18.88,60.98-18.88
				s-12.35-53.82,28.27-58.84c40.62-5.02,47.2,38.8,47.2,38.8s13.18-24.01,44.18-21.4c31,2.6,51.16,30.16,46.79,63.37
				c-4.08,30.93-40.48,43.51-40.48,43.51s31.92,23.74,25.84,52.76c-7.08,33.75-34.65,61.94-74.25,41.64
				c-27.13-13.92-19.97-61.5-19.97-61.5s-29.69,89.79-81.04,53.26C401.82,1749.81,439.1,1708.58,439.1,1708.58z"/>
		</g>
		<g>
			<path class="st15" d="M813.38,1159.49l99.36,235.75l35.53-18.37L813.38,1159.49z"/>
			<path class="st15" d="M873.2,1201.33l104.63,178.17l19.95-13.34L873.2,1201.33z"/>
			<path class="st15" d="M813.38,1220.17l64.39,206l22.48-8.42L813.38,1220.17z"/>
		</g>
	</g>
	<g transform="matrix(-0.736122,-0.676849,0.676849,-0.736122,226.841,606.08)">
		<g transform="matrix(1,0,0,1,-1.52086,5.85749)">
			<path class="st15" d="M-816.71-266.97L-918.3-436.52l-13.38,8.77L-816.71-266.97z"/>
		</g>
		<g transform="matrix(1,0,0,1,-1.52086,5.85749)">
			<path class="st15" d="M-778.51-272.82l-89.27-215.33l-21.67,10.32L-778.51-272.82z"/>
		</g>
		<g transform="matrix(1,0,0,1,-1.52086,5.85749)">
			<path class="st15" d="M-745.41-263.2l-71.56-280.72l-30.52,9.6L-745.41-263.2z"/>
		</g>
	</g>
	<g transform="matrix(1.93529,-1.27765,1.32286,2.00376,-679.381,229.848)">
		<path class="st15" d="M474.71,443.61l130.71-147.74l-19.5-14.21L474.71,443.61z"/>
		<path class="st15" d="M495.55,437.1l157.37-124.47l-8.02-8.9L495.55,437.1z"/>
		<path class="st15" d="M483.03,416.97l85.58-169.12L557.47,243L483.03,416.97z"/>
	</g>
	<g>
		<g transform="matrix(1,0,0,1,4.70546,-1.91888)">
			<path class="st12" d="M348.3,1330.6l105.28-190.46l-78.51,354.64l-100.48-97.46l-102.22,141.71l75.72-281.92L348.3,1330.6z"/>
			<path class="st15" d="M348.3,1330.6l105.28-190.46l-78.51,354.64l-100.48-97.46l-102.22,141.71l75.72-281.92L348.3,1330.6z
				 M429.13,1203.28l-74.06,131.06h-0.62c-0.98,1.94-2.66,3.33-4.63,3.81c-1.97,0.48-4.03,0-5.66-1.32v-0.58l-90.82-64.78
				l-53.88,209.41l64.92-90.93c2.14-2.97,5.47-4.86,9.12-5.18c3.64-0.32,7.25,0.96,9.88,3.51l84.61,82.43L429.13,1203.28z"/>
		</g>
		<g transform="matrix(0.798061,0,0,0.798061,256.147,-219.372)">
			<path class="st12" d="M1248.24,470.63l182-153.86l-173.61,292.77l-67.01-59.77l-138.73,115.76l134.35-253.71L1248.24,470.63z"/>
			<path class="st15" d="M1248.24,470.63l182-153.86l-173.61,292.77l-67.01-59.77l-138.73,115.76l134.35-253.71L1248.24,470.63z
				 M1383.34,371.1l-129.15,106.58h-0.55c-3.24,3.02-8.02,2.89-11.12-0.3v-0.62l-54.36-49.02l-93.43,182.58l85.26-72.07
				c5.72-4.77,14.08-4.64,19.64,0.32l53.57,47.97L1383.34,371.1z"/>
		</g>
		<g transform="matrix(0.982197,-0.187852,-0.187852,-0.982197,323.029,752.918)">
			<path class="st16" d="M886.03-742.36l156.17-237.01l-121.4,402.9l-98.86-63L719.71-497.76l75.72-281.92L886.03-742.36z"/>
			<path class="st15" d="M886.03-742.36l156.17-237.01l-121.4,402.9l-98.86-63L719.71-497.76l75.72-281.92L886.03-742.36z
				 M745.92-554.15l55.17-214.4l82.26,32.67l-0.38,0.08c3.39,1.22,7.34,0.05,9.42-2.8l0.09,0.49l119.31-177.68
				c-11.53,37.23-26.55,85.84-41.5,134.48c-23.54,76.58-46.88,153.2-56.68,185.4l-84.98-54.07c-5.57-3.55-12.94-2.14-16.8,3.22
				L745.92-554.15z"/>
		</g>
	</g>
	<g>
		<g transform="matrix(0.995504,-0.0947196,0.0947196,0.995504,-14.1887,17.3644)">
			<path class="st12" d="M561.51,314.45L408.82,98.98l91.12-35.27L561.51,314.45z"/>
			<path class="st15" d="M561.51,314.45L408.82,98.98l91.12-35.27L561.51,314.45z M491.73,79.62l-64.93,24.9
				c10.72,15.48,30.32,43.83,51.48,74.7c23.05,33.62,47.96,70.2,65.59,96.13c-8.08-29.51-19.3-70.77-29.44-108.87
				C504.83,130.42,496.24,97.19,491.73,79.62z"/>
		</g>
		<path class="st16" d="M216.11,1025.26l-179.74,51.41l-27.51-59.4L216.11,1025.26z"/>
		<path class="st15" d="M216.11,1025.26l-179.74,51.41l-27.51-59.4L216.11,1025.26z M27.73,1029.81l15.11,33.27l119.36-31.29
			c-21.59-0.11-46.98-0.3-70.85-0.65C66.46,1030.77,43.23,1030.23,27.73,1029.81z"/>
		<path class="st12" d="M1327.04,883.62l315.59,48.48l-50.52,114.88L1327.04,883.62z"/>
		<path class="st15" d="M1327.04,883.62l315.59,48.48l-50.52,114.88L1327.04,883.62z M1363.63,897.32
			c32,18.76,82.19,48.27,127.91,75.45c40.32,23.98,77.14,46.15,95.16,57.04l39.25-88.68c-21.7-3.53-64.5-10.53-111.11-18.3
			C1460.54,913.77,1401.07,903.69,1363.63,897.32z"/>
	</g>
	<g>
		<g transform="matrix(0.999264,0.0383552,-0.0383552,0.999264,110.227,-13.7592)">
			<path class="st16" d="M381.1,1289.33c0,0,56.16-21.55,35.22-93.24c0,0,28.95,80.41,78.55,70.88c0,0-45.36,30.98-21.97,114.61
				C472.91,1381.58,426.63,1292.27,381.1,1289.33z"/>
			<path class="st4" d="M378.96,1283.73c-2.63,1.01-4.21,3.72-3.78,6.5c0.42,2.79,2.73,4.9,5.55,5.08
				c14.48,0.72,29,11.21,42.04,24.25c26.45,26.44,46.47,63.91,46.47,63.91c0.98,1.89,3.22,2.73,5.2,1.95
				c1.98-0.78,3.04-2.92,2.47-4.97c-7.01-24.1-8.17-43.75-6.17-59.47c4.64-36.56,25.93-51.42,25.93-51.42
				c1.24-0.84,1.71-2.44,1.14-3.82c-0.58-1.38-2.04-2.17-3.51-1.89c-15.23,2.86-28.33-3.42-39.05-13.05
				c-22.84-20.54-35.06-56.11-35.06-56.11c-0.75-2.08-3.02-3.19-5.12-2.5c-2.1,0.68-3.28,2.92-2.66,5.04
				c5.96,21.68,4.73,38.46,0.12,51.25C402.98,1274.96,378.96,1283.73,378.96,1283.73z M425.52,1224c0.42,10.62-1.04,19.8-3.58,27.69
				c-5.62,17.48-16.68,28.78-25.54,35.43c11.83,4.94,23.39,14.14,33.83,25.18c13.52,14.3,25.28,31.47,33.56,44.91
				c-2.59-20.22-0.96-36.61,2.52-49.65c4.86-18.23,13.38-30.04,19.51-36.62c-13.29-0.22-25.02-6.38-35.04-15.11
				C440.36,1246.72,431.84,1234.74,425.52,1224z"/>
		</g>
		<g transform="matrix(0.846719,0.53204,-0.53204,0.846719,123.017,-198.812)">
			<path class="st16" d="M1511.95-43.08c0,0,41.92-16.87,48.24-66.04c0,0,1.31,64.87,30.51,73.5c0,0-44.08,17.1-47.39,58.88
				C1543.32,23.27,1545.06-21.26,1511.95-43.08z"/>
			<path class="st4" d="M1509.71-48.65c-2.07,0.84-3.5,2.75-3.73,4.97c-0.22,2.22,0.8,4.38,2.67,5.61
				c11.03,6.93,18.02,16.61,22.43,26.2c8.13,17.68,7.84,34.97,7.84,34.97c-0.1,2.39,1.74,4.42,4.14,4.56
				c2.39,0.14,4.46-1.66,4.65-4.05c0.87-14.06,6.7-25.24,13.86-33.75c13.06-15.53,30.3-22.45,30.3-22.45
				c1.3-0.5,2.13-1.77,2.07-3.16c-0.06-1.38-0.99-2.58-2.32-2.98c-9.26-2.73-15.3-11.82-19.37-22.33
				c-8.18-21.12-8.21-48.14-8.21-48.14c-0.04-2.02-1.63-3.67-3.65-3.78c-2.02-0.11-3.78,1.36-4.04,3.36
				c-2.38,15.66-8.5,27.76-15.6,36.9C1527.05-55.06,1509.71-48.65,1509.71-48.65z M1558.85-86.5c-2.8,7.46-6.4,13.94-10.31,19.53
				c-8.6,12.3-18.85,20.27-25.91,24.78c8.49,7.8,14.18,17.06,17.93,26.2c2.29,5.58,3.86,11.11,4.94,16.18
				c2.9-5.76,6.52-10.8,10.44-15.2c9.3-10.43,20.28-17.12,27.09-20.62c-7.44-4.82-12.86-13.33-16.76-23.06
				C1562.65-67.72,1560.33-77.77,1558.85-86.5z"/>
		</g>
		<g transform="matrix(1.59675,0.689717,-0.689717,1.59675,-218.082,-231.667)">
			<path class="st16" d="M872.53-41.27c0,0,27.98,2.81,30.27-38.7c0,0-0.94,37.68,18.46,44.96c0,0-26.48,13.52-28.86,42.96
				C892.39,7.93,893.64-27.87,872.53-41.27z"/>
			<path class="st4" d="M872.88-44.71c-1.59-0.16-3.08,0.79-3.6,2.3c-0.52,1.51,0.06,3.18,1.41,4.04
				c5.96,3.62,10.03,9.21,12.84,15.2c6.72,14.36,6.42,31.01,6.42,31.01c-0.04,1.33,0.98,2.46,2.32,2.54
				c1.33,0.08,2.48-0.92,2.59-2.26c0.65-9.78,4.08-17.78,8.34-24.02c8.06-11.85,18.91-17.5,18.91-17.5c0.65-0.33,1.04-1.01,1-1.73
				c-0.04-0.72-0.5-1.36-1.18-1.61c-5.96-2.25-9.79-7.64-12.28-13.79c-5.27-13-4.58-29.4-4.58-29.4c0.03-1.23-0.93-2.25-2.16-2.3
				c-1.23-0.05-2.27,0.9-2.34,2.12c-0.86,11.51-3.68,19.41-7.33,24.79C885.08-43.29,872.88-44.71,872.88-44.71z M902.33-62.22
				c-2,6.54-4.89,11.29-8.01,14.75c-4.48,4.96-9.54,7.4-13.69,8.57c3.64,3.88,6.38,8.46,8.42,13.26c2.55,6.01,4,12.34,4.81,17.87
				c1.66-3.91,3.7-7.4,5.92-10.5c6.12-8.56,13.53-14.01,17.6-16.6c-5.13-3.07-8.72-8.32-11.21-14.23
				C904.38-53.33,903.16-57.91,902.33-62.22z"/>
		</g>
		<g transform="matrix(1.30898,0.571759,-0.571759,1.30898,3.33948,-64.6876)">
			<path class="st16" d="M443.02-15.78c0,0,21.54-24.57,5.58-76.42c0,0,18.34,50.78,52.43,49.27c0,0-17.29,39.78-2.14,70.09
				C498.9,27.16,490.39-7.62,443.02-15.78z"/>
			<path class="st4" d="M493.45,21.8c-2.78-5.52-8.29-13.86-18.43-20.98c-7.86-5.52-18.48-10.25-32.71-12.46
				c-1.5-0.26-2.74-1.31-3.25-2.74s-0.2-3.03,0.8-4.17c0,0,10.03-11.17,11.2-34.69c0.52-10.38-0.68-23.07-5.04-38.17
				c-0.43-1.4,0.33-2.89,1.72-3.36c1.39-0.46,2.9,0.26,3.4,1.64c0,0,7.99,23.17,23.74,37.4c7.1,6.42,15.83,10.98,26.05,10.53
				c0.78-0.04,1.52,0.34,1.96,0.98c0.44,0.64,0.52,1.47,0.21,2.18c0,0-6.58,15.44-7.64,34.24c-0.45,7.94,0.09,16.48,2.57,24.67
				c2.93,5.62,3.82,9.55,3.82,9.55c0.37,1.5-0.45,3.04-1.9,3.58c-1.45,0.53-3.07-0.11-3.76-1.5
				C495.12,26.32,494.21,24.07,493.45,21.8z M456.54-70.9c1.54,10.06,1.57,18.75,0.82,26.1c-1.26,12.38-4.81,21.08-7.58,26.21
				c12.55,3.14,22.15,8.1,29.46,13.59c4.46,3.34,8.07,6.88,10.99,10.33c-0.15-2.03-0.22-4.05-0.22-6.06
				c-0.02-17.48,5.21-33.42,7.68-39.96c-9.99-0.53-18.6-5.26-25.82-11.67C465.69-57.84,460.56-64.58,456.54-70.9z"/>
		</g>
		<g transform="matrix(0.651292,0.174546,-0.174546,0.651292,118.43,29.3292)">
			<path class="st16" d="M1670.72,1454.85c0,0,50.79-20.28,48.38-65.89c0,0-3.55,58.68,36.76,73.14c0,0-32.86,16.06-36.76,64.64
				C1719.1,1526.74,1716.47,1465.8,1670.72,1454.85z"/>
			<path class="st4" d="M1715.17,1392.83c-0.06-2.6,0.01-4.12,0.01-4.12c0.12-2.08,1.85-3.7,3.93-3.69c2.08,0.01,3.8,1.64,3.91,3.72
				c0.26,3.5,0.22,6.86-0.07,10.09c0.4,9.92,2.33,25.78,9.86,39.23c5.06,9.03,12.74,16.91,24.14,21.01
				c1.21,0.44,2.05,1.56,2.12,2.84c0.07,1.29-0.64,2.49-1.8,3.06c0,0-14.39,7.28-24.52,26.53c-4.76,9.06-8.51,20.77-9.47,35.56
				c-0.18,2.21-2.04,3.9-4.26,3.86c-2.22-0.04-4.02-1.8-4.12-4.02c0,0-1.4-22.52-13.06-41.82c-6.68-11.06-16.89-21.01-32.52-24.42
				c-2.54-0.61-4.4-2.79-4.59-5.4s1.33-5.04,3.76-6.01c0,0,19.31-7.06,33.13-23.17C1708.9,1417.61,1714.67,1406.61,1715.17,1392.83z
				 M1718.16,1417.36c-2.41,5.5-5.52,10.47-8.98,14.91c-7.63,9.81-17.03,16.99-24.34,21.64c8.51,4.47,15.19,10.71,20.4,17.76
				c7.46,10.09,11.86,21.8,14.43,31.81c1.92-5.78,4.24-10.89,6.76-15.39c7.49-13.4,16.75-21.41,22.52-25.48
				c-9.83-5-16.78-12.73-21.75-21.33C1722.75,1433.59,1719.93,1425.17,1718.16,1417.36z"/>
		</g>
		<g transform="matrix(-1.1369,0.855905,-0.855905,-1.1369,843.474,313.431)">
			<path class="st16" d="M483.35,199.01c0,0,50.79-20.28,48.38-65.89c0,0-0.08,51.62,40.24,66.08c0,0-36.34,23.12-40.24,71.7
				C531.73,270.9,529.09,209.96,483.35,199.01z"/>
			<path class="st4" d="M535.83,137.84c0.48,6.94,2.28,20.47,8.99,33.16c5.48,10.36,14.28,20.14,28.22,25.2
				c1.14,0.41,1.95,1.43,2.08,2.64c0.14,1.2-0.43,2.38-1.45,3.03c0,0-15.4,9.99-26.61,30.48c-5.63,10.29-10.12,23.25-11.14,38.87
				c-0.18,2.22-2.05,3.92-4.28,3.87c-2.22-0.04-4.03-1.8-4.13-4.03c0,0-1.39-22.52-13.05-41.81c-6.68-11.06-16.89-21.02-32.52-24.43
				c-2.54-0.61-4.4-2.79-4.59-5.4c-0.19-2.61,1.33-5.04,3.76-6.01c0,0,19.31-7.06,33.12-23.17c7.91-9.23,14.03-21.42,13.55-36.94
				l0,0l0-0.21c0-2.13,1.7-3.88,3.84-3.93c2.13-0.05,3.92,1.6,4.04,3.73C535.79,134.58,535.84,136.23,535.83,137.84z M532.33,247.76
				c2.34-7.04,5.3-13.33,8.52-18.89c8.47-14.63,18.79-24.17,24.69-28.88c-12.64-5.96-21-15.64-26.61-25.8
				c-2.97-5.38-5.15-10.92-6.75-16.11c-2.54,6.9-6.21,13-10.37,18.35c-7.63,9.8-17.03,16.98-24.35,21.63
				c8.51,4.47,15.19,10.71,20.4,17.76C525.36,225.96,529.75,237.72,532.33,247.76z"/>
		</g>
	</g>
	<g>
		<g transform="matrix(125.457,-11.6815,12.9794,139.397,91.322,307.287)">
			<path class="st17" d="M0.15,2.74c0,0.01,0.5,2.12,0.5,2.12s0.21,0.36,0.28,0.48c0.04,0.06,0.1,0.12,0.18,0.12h0.8
				c0.1,0,0.15-0.04,0.17-0.13l0.17-0.77l0.07,0.3c0,0,0.2,0.38,0.28,0.48c0.05,0.06,0.11,0.13,0.21,0.13h0.8
				c0.08,0,0.14-0.09,0.15-0.13l0.8-2.54c0-0.01,0.01-0.04,0.01-0.05c0-0.05-0.35-0.56-0.35-0.56L3.18,4.32l-0.07,0l-0.4-1.54
				C2.7,2.71,2.34,2.17,2.34,2.17L1.55,4.32L1.21,2.79c-0.02-0.08-0.4-0.62-0.4-0.62S0.15,2.69,0.15,2.74z"/>
			<path class="st18" d="M3.18,3.96l0.9-1.84c0.02-0.05,0.08-0.08,0.13-0.08c0.06,0,0.12,0.02,0.15,0.07c0,0,0.23,0.33,0.32,0.49
				c0.04,0.07,0.06,0.12,0.06,0.14c0,0.02-0.01,0.06-0.02,0.08c0,0,0,0.01,0,0.01L3.92,5.36C3.9,5.4,3.87,5.48,3.81,5.52
				C3.76,5.57,3.69,5.6,3.61,5.6h-0.8c-0.15,0-0.26-0.09-0.34-0.19c-0.04-0.06-0.12-0.18-0.19-0.3L2.24,5.35
				c-0.02,0.08-0.06,0.14-0.1,0.18C2.08,5.57,2.01,5.6,1.91,5.6h-0.8c-0.14,0-0.25-0.1-0.32-0.2C0.72,5.28,0.51,4.92,0.51,4.92
				C0.5,4.91,0.5,4.9,0.5,4.88c0,0-0.51-2.13-0.51-2.14c0-0.02,0-0.04,0.02-0.08c0.01-0.02,0.04-0.06,0.09-0.1
				c0.18-0.16,0.61-0.5,0.61-0.5c0.03-0.03,0.08-0.04,0.13-0.04c0.04,0.01,0.08,0.03,0.11,0.06c0,0,0.25,0.36,0.36,0.54
				c0.04,0.06,0.06,0.11,0.06,0.13l0.22,1l0.6-1.63c0.02-0.05,0.07-0.09,0.14-0.1C2.38,2.02,2.44,2.05,2.48,2.1
				c0,0,0.23,0.35,0.33,0.53c0.04,0.06,0.06,0.11,0.06,0.13l0-0.01L3.18,3.96z M0.15,2.74c0,0.01,0.5,2.12,0.5,2.12
				s0.21,0.36,0.28,0.48c0.04,0.06,0.1,0.12,0.18,0.12h0.8c0.1,0,0.15-0.04,0.17-0.13l0.17-0.77l0.07,0.3c0,0,0.2,0.38,0.28,0.48
				c0.05,0.06,0.11,0.13,0.21,0.13h0.8c0.08,0,0.14-0.09,0.15-0.13l0.8-2.54c0-0.01,0.01-0.04,0.01-0.05c0-0.05-0.35-0.56-0.35-0.56
				L3.18,4.32l-0.07,0l-0.4-1.54C2.7,2.71,2.34,2.17,2.34,2.17L1.55,4.32L1.21,2.79c-0.02-0.08-0.4-0.62-0.4-0.62
				S0.15,2.69,0.15,2.74z"/>
		</g>
		<g>
			<path class="st19" d="M416.33,1049.06c-3.06,0-6.07-1.4-8.04-4.04l-50.22-67.63c-3.29-4.43-2.37-10.7,2.07-13.99
				c4.43-3.29,10.7-2.37,13.99,2.07l50.22,67.63c3.29,4.43,2.37,10.7-2.07,13.99C420.49,1048.42,418.4,1049.06,416.33,1049.06z"/>
			<g transform="matrix(1,0,0,1,53.0145,-4.05583)">
				<path class="st19" d="M575.37,1036.89c-3.06,0-6.07-1.4-8.04-4.04l-50.22-67.63c-3.29-4.43-2.37-10.7,2.07-13.99
					c4.43-3.29,10.7-2.37,13.99,2.07l50.22,67.63c3.29,4.43,2.37,10.7-2.07,13.99C579.53,1036.25,577.44,1036.89,575.37,1036.89z"/>
			</g>
			<g transform="matrix(1,0,0,1,-6.27714,3.66204)">
				<path class="st19" d="M397.49,1054.04c-1.22,0-2.43-0.56-3.21-1.62l-32.94-44.37c-1.32-1.77-0.95-4.28,0.83-5.6
					c1.77-1.32,4.28-0.95,5.6,0.83l32.94,44.37c1.32,1.77,0.95,4.28-0.83,5.6C399.16,1053.79,398.32,1054.04,397.49,1054.04z"/>
			</g>
			<g transform="matrix(1,0,0,1,46.7374,-0.393796)">
				<path class="st19" d="M556.53,1041.88c-1.22,0-2.43-0.56-3.21-1.62l-32.94-44.37c-1.32-1.77-0.95-4.28,0.83-5.6
					c1.77-1.32,4.28-0.95,5.6,0.83l32.94,44.37c1.32,1.77,0.95,4.28-0.83,5.6C558.2,1041.62,557.36,1041.88,556.53,1041.88z"/>
			</g>
			<g transform="matrix(1,0,0,1,4.118,-5.13278)">
				<path class="st19" d="M428.68,1027.66c-1.22,0-2.43-0.56-3.21-1.62l-32.94-44.37c-1.32-1.77-0.95-4.28,0.83-5.6
					c1.77-1.31,4.28-0.95,5.6,0.83l32.94,44.37c1.32,1.77,0.95,4.28-0.83,5.6C430.34,1027.4,429.5,1027.66,428.68,1027.66z"/>
			</g>
			<g transform="matrix(1,0,0,1,57.1326,-9.18862)">
				<path class="st19" d="M587.72,1015.49c-1.22,0-2.43-0.56-3.21-1.62l-32.94-44.37c-1.32-1.77-0.95-4.28,0.83-5.6
					c1.77-1.32,4.28-0.95,5.6,0.83l32.94,44.37c1.32,1.77,0.95,4.28-0.83,5.6C589.38,1015.23,588.55,1015.49,587.72,1015.49z"/>
			</g>
			<g transform="matrix(1,0,0,1,72.7497,-94.4386)">
				<path class="st19" d="M634.57,759.74c-1.22,0-2.43-0.56-3.21-1.62l-32.94-44.37c-1.32-1.77-0.95-4.28,0.83-5.6
					c1.77-1.32,4.28-0.95,5.6,0.83l32.94,44.37c1.32,1.77,0.95,4.28-0.83,5.6C636.24,759.48,635.4,759.74,634.57,759.74z"/>
			</g>
			<g transform="matrix(1,0,0,1,17.8905,-84.9601)">
				<path class="st19" d="M469.99,788.18c-1.22,0-2.43-0.56-3.21-1.62l-32.94-44.37c-1.32-1.77-0.95-4.28,0.83-5.6
					c1.77-1.32,4.28-0.95,5.6,0.83l32.94,44.37c1.32,1.77,0.95,4.28-0.83,5.6C471.66,787.92,470.82,788.18,469.99,788.18z"/>
			</g>
			<g transform="matrix(1,0,0,1,-30.5751,-81.7513)">
				<path class="st19" d="M324.6,797.8c-1.22,0-2.43-0.56-3.21-1.62l-32.94-44.37c-1.32-1.77-0.95-4.28,0.83-5.6
					c1.77-1.32,4.28-0.95,5.6,0.83l32.94,44.37c1.32,1.77,0.95,4.28-0.83,5.6C326.26,797.55,325.43,797.8,324.6,797.8z"/>
			</g>
		</g>
		<g transform="matrix(125.457,-11.6815,12.9794,139.397,79.0232,290.105)">
			<path class="st20" d="M-0.1,2.35c0,0.01,0,0.04,0.01,0.05l0.81,2.54c0.01,0.04,0.06,0.13,0.15,0.13h0.8
				c0.1,0,0.15-0.04,0.17-0.13l0.28-1.27L2.4,4.93c0.02,0.09,0.07,0.13,0.16,0.13h0.8c0.08,0,0.14-0.09,0.15-0.13l0.8-2.54
				c0-0.01,0.01-0.04,0.01-0.05c0-0.05-0.05-0.08-0.13-0.08l-0.77,0c-0.1,0-0.15,0.05-0.17,0.13L2.93,3.93l-0.02,0.1H2.88l-0.02-0.1
				L2.46,2.4C2.44,2.32,2.42,2.26,2.33,2.26H1.9c-0.1,0-0.12,0.05-0.14,0.13l-0.4,1.54l-0.02,0.1H1.31L1.3,3.93L0.96,2.4
				C0.94,2.32,0.89,2.26,0.8,2.26H0.03C-0.06,2.26-0.1,2.3-0.1,2.35z"/>
			<path class="st18" d="M2.88,3.39L3.1,2.37C3.12,2.3,3.16,2.24,3.2,2.2c0.06-0.04,0.13-0.08,0.22-0.08H4.2
				c0.2,0,0.29,0.11,0.29,0.23c0,0.02-0.01,0.06-0.02,0.08c0,0,0,0.01,0,0.01L3.66,4.97C3.65,5.01,3.62,5.08,3.56,5.13
				C3.5,5.18,3.44,5.21,3.36,5.21h-0.8c-0.09,0-0.16-0.03-0.22-0.07c-0.05-0.04-0.09-0.1-0.1-0.18L2.11,4.39L1.98,4.96
				C1.96,5.04,1.93,5.1,1.88,5.14C1.83,5.18,1.76,5.21,1.66,5.21h-0.8c-0.07,0-0.14-0.03-0.19-0.08c-0.06-0.05-0.1-0.12-0.11-0.16
				l-0.8-2.53c0,0,0,0,0-0.01c0-0.02-0.01-0.06-0.01-0.08c0-0.12,0.1-0.23,0.29-0.23H0.8c0.1,0,0.17,0.03,0.22,0.08
				c0.05,0.04,0.09,0.1,0.1,0.17l0.22,1.02l0.27-1.02c0.02-0.08,0.05-0.14,0.1-0.18C1.75,2.15,1.8,2.12,1.9,2.12l0.43,0
				c0.09,0,0.15,0.03,0.19,0.06c0.05,0.04,0.08,0.1,0.1,0.18L2.88,3.39z M-0.1,2.35c0,0.01,0,0.04,0.01,0.05l0.81,2.54
				c0.01,0.04,0.06,0.13,0.15,0.13h0.8c0.1,0,0.15-0.04,0.17-0.13l0.28-1.27L2.4,4.93c0.02,0.09,0.07,0.13,0.16,0.13h0.8
				c0.08,0,0.14-0.09,0.15-0.13l0.8-2.54c0-0.01,0.01-0.04,0.01-0.05c0-0.05-0.05-0.08-0.13-0.08l-0.77,0
				c-0.1,0-0.15,0.05-0.17,0.13L2.93,3.93l-0.02,0.1H2.88l-0.02-0.1L2.46,2.4C2.44,2.32,2.42,2.26,2.33,2.26H1.9
				c-0.1,0-0.12,0.05-0.14,0.13l-0.4,1.54l-0.02,0.1H1.31L1.3,3.93L0.96,2.4C0.94,2.32,0.89,2.26,0.8,2.26H0.03
				C-0.06,2.26-0.1,2.3-0.1,2.35z"/>
		</g>
	</g>
	<g>
		<g transform="matrix(125.926,4.31424,-4.79359,139.918,237.392,295.211)">
			<path class="st17" d="M4.51,4.9c0,0.07,0.06,0.13,0.13,0.13h0.67c0.07,0,0.13-0.06,0.13-0.13l0-2.54c0-0.07-0.06-0.13-0.13-0.13
				H4.65c-0.07,0-0.13,0.06-0.13,0.13L4.51,4.9z"/>
			<path class="st18" d="M4.35,4.9c0,0.16,0.14,0.28,0.29,0.28h0.67c0.16,0,0.29-0.12,0.29-0.28l0-2.54c0-0.16-0.14-0.28-0.29-0.28
				H4.65c-0.16,0-0.29,0.12-0.29,0.28L4.35,4.9z M4.51,4.9c0,0.07,0.06,0.13,0.13,0.13h0.67c0.07,0,0.13-0.06,0.13-0.13l0-2.54
				c0-0.07-0.06-0.13-0.13-0.13H4.65c-0.07,0-0.13,0.06-0.13,0.13L4.51,4.9z"/>
		</g>
		<g transform="matrix(125.926,4.31424,-4.79359,139.918,238.029,277.325)">
			<path class="st20" d="M4.52,4.52c0,0.07,0.06,0.13,0.13,0.13l0.67,0c0.07,0,0.13-0.06,0.13-0.13L5.5,1.96
				c0-0.08-0.06-0.14-0.13-0.14L4.59,1.85c-0.07,0-0.13,0.06-0.13,0.14L4.52,4.52z"/>
			<path class="st18" d="M4.36,4.52c0,0.16,0.14,0.28,0.29,0.28l0.67,0c0.16,0,0.29-0.12,0.29-0.28l0.05-2.56l0,0
				c0-0.16-0.14-0.28-0.29-0.28c0,0,0,0-0.01,0L4.58,1.71l0,0c-0.16,0-0.29,0.12-0.29,0.28c0,0,0,0,0,0L4.36,4.52L4.36,4.52z
				 M4.52,4.52c0,0.07,0.06,0.13,0.13,0.13l0.67,0c0.07,0,0.13-0.06,0.13-0.13L5.5,1.96c0-0.08-0.06-0.14-0.13-0.14L4.59,1.85
				c-0.07,0-0.13,0.06-0.13,0.14L4.52,4.52z"/>
		</g>
		<path class="st19" d="M799.54,1026.83c-0.02,0-0.04,0-0.06,0c-2.21-0.03-3.97-1.85-3.94-4.06l0.56-36.76
			c0.03-2.19,1.82-3.94,4-3.94c0.02,0,0.04,0,0.06,0c2.21,0.03,3.97,1.85,3.94,4.06l-0.56,36.76
			C803.5,1025.08,801.72,1026.83,799.54,1026.83z"/>
		<g transform="matrix(1,0,0,1,20.5452,0.608707)">
			<path class="st19" d="M861.17,1028.66c-0.09,0-0.17,0-0.26-0.01c-2.21-0.14-3.88-2.04-3.74-4.25l2.37-36.77
				c0.14-2.21,2.08-3.86,4.25-3.74c2.21,0.14,3.88,2.04,3.74,4.25l-2.37,36.77C865.03,1027.03,863.27,1028.66,861.17,1028.66z"/>
		</g>
	</g>
	<g>
		<g transform="matrix(124.496,19.4097,-21.5663,138.329,285.589,296.916)">
			<path class="st17" d="M6.3,4.28c0,0.07,0.06,0.13,0.13,0.13l0.67,0c0.07,0,0.57-0.59,0.57-0.59s0.2,0.36,0.28,0.46
				c0.05,0.06,0.1,0.13,0.18,0.13l0.7,0c0.08,0,0.56-0.57,0.56-0.57L8.54,1.11L8.03,1.74L6.8,1.12c0,0-0.5,0.55-0.5,0.62V4.28z"/>
			<path class="st15" d="M7.64,4.09C7.53,4.21,7.39,4.37,7.3,4.45C7.24,4.49,7.2,4.53,7.18,4.54C7.14,4.55,7.12,4.55,7.1,4.55
				l-0.67,0c-0.16,0-0.29-0.12-0.29-0.28l0-2.54c0-0.02,0.02-0.09,0.08-0.17c0.13-0.18,0.46-0.54,0.46-0.54
				c0.05-0.06,0.14-0.07,0.2-0.04l1.11,0.56l0.42-0.53c0.04-0.04,0.1-0.07,0.16-0.06c0.06,0.01,0.11,0.05,0.13,0.1L9.54,3.8
				c0.01,0.04,0,0.09-0.03,0.12c0,0-0.32,0.38-0.48,0.52C8.98,4.5,8.93,4.53,8.91,4.54C8.88,4.55,8.85,4.55,8.83,4.55h-0.7
				C8.06,4.55,8,4.53,7.94,4.49C7.89,4.46,7.85,4.41,7.82,4.36C7.78,4.31,7.7,4.19,7.64,4.09z M6.3,4.28c0,0.07,0.06,0.13,0.13,0.13
				l0.67,0c0.07,0,0.57-0.59,0.57-0.59s0.2,0.36,0.28,0.46c0.05,0.06,0.1,0.13,0.18,0.13l0.7,0c0.08,0,0.56-0.57,0.56-0.57
				L8.54,1.11L8.03,1.74L6.8,1.12c0,0-0.5,0.55-0.5,0.62V4.28z"/>
		</g>
		<g>
			<path class="st21" d="M981.2,1036.2c-2.66,0-5.32-1.06-7.29-3.15c-3.78-4.03-3.58-10.35,0.44-14.13l54.65-51.34
				c4.03-3.78,10.35-3.58,14.13,0.44c3.78,4.03,3.58,10.35-0.44,14.13l-54.65,51.34C986.11,1035.31,983.65,1036.2,981.2,1036.2z"/>
			<g transform="matrix(1,0,0,1,53.9193,8.82302)">
				<path class="st21" d="M1142.95,1062.67c-2.66,0-5.31-1.05-7.28-3.14c-3.79-4.02-3.6-10.35,0.42-14.14l57.5-54.18
					c4.02-3.79,10.35-3.6,14.14,0.42c3.79,4.02,3.6,10.35-0.42,14.14l-57.5,54.18C1147.88,1061.77,1145.41,1062.67,1142.95,1062.67z
					"/>
			</g>
			<path class="st21" d="M970.82,1004.54c-1.08,0-2.15-0.43-2.94-1.29c-1.5-1.62-1.4-4.15,0.22-5.65l27.78-25.67
				c1.62-1.5,4.15-1.4,5.65,0.22c1.5,1.62,1.4,4.15-0.22,5.65l-27.78,25.67C972.76,1004.19,971.79,1004.54,970.82,1004.54z"/>
			<g transform="matrix(1,0,0,1,12.7842,-80.0049)">
				<path class="st21" d="M1009.17,764.52c-1.08,0-2.15-0.43-2.94-1.29c-1.5-1.62-1.4-4.15,0.22-5.65l27.78-25.67
					c1.62-1.5,4.15-1.4,5.65,0.22c1.5,1.62,1.4,4.15-0.22,5.65l-27.78,25.67C1011.12,764.17,1010.14,764.52,1009.17,764.52z"/>
			</g>
			<g transform="matrix(1,0,0,1,53.9193,8.82302)">
				<path class="st21" d="M1126.21,1037.37c-1.07,0-2.13-0.42-2.92-1.26c-1.51-1.61-1.43-4.14,0.18-5.65l34.15-32.04
					c1.61-1.51,4.14-1.43,5.65,0.18c1.51,1.61,1.43,4.14-0.18,5.65l-34.15,32.04C1128.17,1037.02,1127.19,1037.37,1126.21,1037.37z"
					/>
			</g>
			<g transform="matrix(1,0,0,1,70.9861,-74.7462)">
				<path class="st21" d="M1177.41,786.67c-1.07,0-2.13-0.42-2.92-1.26c-1.51-1.61-1.43-4.14,0.18-5.65l34.15-32.04
					c1.61-1.51,4.14-1.43,5.65,0.18c1.51,1.61,1.43,4.14-0.18,5.65l-34.15,32.04C1179.37,786.31,1178.39,786.67,1177.41,786.67z"/>
			</g>
			<g transform="matrix(1,0,0,1,8.52816,9.62625)">
				<path class="st21" d="M996.4,1033.42c-1.08,0-2.15-0.43-2.94-1.29c-1.5-1.62-1.4-4.15,0.22-5.65l27.78-25.67
					c1.62-1.5,4.15-1.4,5.65,0.22c1.5,1.62,1.4,4.15-0.22,5.65l-27.78,25.67C998.35,1033.06,997.38,1033.42,996.4,1033.42z"/>
			</g>
			<g transform="matrix(1,0,0,1,62.4474,18.4493)">
				<path class="st21" d="M1158.16,1059.88c-1.08,0-2.15-0.43-2.94-1.29c-1.5-1.62-1.4-4.15,0.22-5.65l27.78-25.67
					c1.62-1.5,4.16-1.4,5.65,0.22c1.5,1.62,1.4,4.15-0.22,5.65l-27.78,25.67C1160.11,1059.53,1159.13,1059.88,1158.16,1059.88z"/>
			</g>
		</g>
		<g transform="matrix(124.496,19.4097,-21.5663,138.329,302.924,280.76)">
			<path class="st20" d="M6.64,3.88c0,0.07,0.06,0.13,0.13,0.13l0.67,0c0.07,0,0.13-0.06,0.13-0.13l0-1.17l0.72,1.17
				c0.05,0.08,0.1,0.13,0.18,0.13l0.7,0c0.08,0,0.14-0.06,0.14-0.13l0-2.54c0-0.07-0.06-0.13-0.14-0.13l-0.66,0
				c-0.08,0-0.14,0.06-0.14,0.13v1.27L7.66,1.34c-0.05-0.08-0.1-0.13-0.18-0.13l-0.7,0c-0.07,0-0.13,0.06-0.13,0.13L6.64,3.88z"/>
			<path class="st15" d="M7.74,3.26l0,0.62c0,0.16-0.14,0.28-0.29,0.28H6.78c-0.16,0-0.29-0.12-0.29-0.28l0-2.54
				c0-0.16,0.14-0.28,0.29-0.28l0.7,0c0.15,0,0.24,0.07,0.32,0.21c0,0,0,0,0,0l0.42,0.74V1.34c0-0.16,0.14-0.28,0.29-0.28l0.66,0
				c0.16,0,0.29,0.12,0.29,0.28v2.54c0,0.16-0.14,0.28-0.29,0.28h-0.7c-0.14,0-0.24-0.07-0.32-0.21L7.74,3.26z M6.64,3.88
				c0,0.07,0.06,0.13,0.13,0.13l0.67,0c0.07,0,0.13-0.06,0.13-0.13l0-1.17l0.72,1.17c0.05,0.08,0.1,0.13,0.18,0.13l0.7,0
				c0.08,0,0.14-0.06,0.14-0.13l0-2.54c0-0.07-0.06-0.13-0.14-0.13l-0.66,0c-0.08,0-0.14,0.06-0.14,0.13v1.27L7.66,1.34
				c-0.05-0.08-0.1-0.13-0.18-0.13l-0.7,0c-0.07,0-0.13,0.06-0.13,0.13L6.64,3.88z"/>
		</g>
	</g>
</g>
</svg>
